<?xml version="1.0" encoding="UTF-8"?>
<svg version="1.1" xmlns="http://www.w3.org/2000/svg" width="500" height="500">
<path d="M0 0 C-0.66 1.32 -1.32 2.64 -2 4 C-2.99 4 -3.98 4 -5 4 C-5 4.66 -5 5.32 -5 6 C-7.31 6.33 -9.62 6.66 -12 7 C-12 7.66 -12 8.32 -12 9 C-13.98 9.33 -15.96 9.66 -18 10 C-18 10.66 -18 11.32 -18 12 C-19.98 12.33 -21.96 12.66 -24 13 C-24 13.66 -24 14.32 -24 15 C-25.65 15.33 -27.3 15.66 -29 16 C-29 16.66 -29 17.32 -29 18 C-30.65 18.33 -32.3 18.66 -34 19 C-34 19.66 -34 20.32 -34 21 C-35.65 21.33 -37.3 21.66 -39 22 C-39 22.66 -39 23.32 -39 24 C-40.96875 25.5078125 -40.96875 25.5078125 -43.5 27.125 C-44.3353125 27.66382813 -45.170625 28.20265625 -46.03125 28.7578125 C-46.6809375 29.16773438 -47.330625 29.57765625 -48 30 C-47.43490723 30.01981934 -46.86981445 30.03963867 -46.28759766 30.06005859 C-43.73292003 30.15518236 -41.17907459 30.26491058 -38.625 30.375 C-37.73554688 30.4059375 -36.84609375 30.436875 -35.9296875 30.46875 C-35.07890625 30.50742188 -34.228125 30.54609375 -33.3515625 30.5859375 C-32.56604004 30.6173584 -31.78051758 30.6487793 -30.97119141 30.68115234 C-29 31 -29 31 -27 33 C-26.55871747 35.70249497 -26.2091988 38.34314937 -25.9375 41.0625 C-25.84484601 45.92433354 -25.84484601 45.92433354 -24 50 C-23.67 49.01 -23.34 48.02 -23 47 C-22.34 47 -21.68 47 -21 47 C-20.67 41.72 -20.34 36.44 -20 31 C-12.41 31 -4.82 31 3 31 C3 33.64 3 36.28 3 39 C2.34 39 1.68 39 1 39 C0.95101562 39.78503906 0.90203125 40.57007813 0.8515625 41.37890625 C0.43551826 47.22504511 -0.21703549 52.42823592 -2 58 C-2.36270588 59.99488234 -2.70640699 61.9937811 -3 64 C-3.66 64 -4.32 64 -5 64 C-5 66.64 -5 69.28 -5 72 C-3.72746564 68.35206816 -2.67170806 64.8063457 -2 61 C-1.34 61 -0.68 61 0 61 C0.33 57.37 0.66 53.74 1 50 C1.66 50 2.32 50 3 50 C3.33 46.37 3.66 42.74 4 39 C4.66 39 5.32 39 6 39 C6.33 36.36 6.66 33.72 7 31 C15.58 31 24.16 31 33 31 C33.33 34.3 33.66 37.6 34 41 C34.66 41 35.32 41 36 41 C36.33 44.63 36.66 48.26 37 52 C37.66 52 38.32 52 39 52 C39.33 55.3 39.66 58.6 40 62 C40.66 62 41.32 62 42 62 C42.33 65.63 42.66 69.26 43 73 C43.66 73 44.32 73 45 73 C45.33 76.3 45.66 79.6 46 83 C46.66 83 47.32 83 48 83 C48.33 86.63 48.66 90.26 49 94 C49.66 94 50.32 94 51 94 C51.33 94.99 51.66 95.98 52 97 C53.175625 96.01 53.175625 96.01 54.375 95 C57 93 57 93 59 93 C59 92.34 59 91.68 59 91 C59.66 91 60.32 91 61 91 C60.40312566 94.34249629 59.26396123 96.46436342 57 99 C56.34 99 55.68 99 55 99 C54.773125 99.53625 54.54625 100.0725 54.3125 100.625 C50.3348949 107.82257113 43.50949925 114.5881117 36 118 C36 118.66 36 119.32 36 120 C33.74185152 121.79826445 31.48722261 123.4746801 29.125 125.125 C28.14853516 125.82689453 28.14853516 125.82689453 27.15234375 126.54296875 C22.26412172 130 22.26412172 130 20 130 C20 130.66 20 131.32 20 132 C18.68 132.33 17.36 132.66 16 133 C16 133.66 16 134.32 16 135 C14.02 135.33 12.04 135.66 10 136 C10 136.66 10 137.32 10 138 C8.35 138.33 6.7 138.66 5 139 C5 139.66 5 140.32 5 141 C3.02 141.33 1.04 141.66 -1 142 C-1 142.66 -1 143.32 -1 144 C-3.31 144.33 -5.62 144.66 -8 145 C-8 145.66 -8 146.32 -8 147 C-9.89248819 147.67610423 -11.7891602 148.34050439 -13.6875 149 C-14.74324219 149.37125 -15.79898438 149.7425 -16.88671875 150.125 C-19.78362056 150.9391857 -22.01700623 151.17709796 -25 151 C-25 151.66 -25 152.32 -25 153 C-33.69024251 154.81020947 -42.17425206 155.31461372 -51.02783203 155.26074219 C-53.12952263 155.24997683 -55.23036561 155.2607268 -57.33203125 155.2734375 C-64.76254238 155.27999634 -71.78895162 154.89730311 -79 153 C-79 152.34 -79 151.68 -79 151 C-80.98 150.67 -82.96 150.34 -85 150 C-85 149.34 -85 148.68 -85 148 C-86.65 147.67 -88.3 147.34 -90 147 C-90 146.34 -90 145.68 -90 145 C-90.8971875 144.566875 -90.8971875 144.566875 -91.8125 144.125 C-94 143 -94 143 -97 141 C-97 140.34 -97 139.68 -97 139 C-97.66 139 -98.32 139 -99 139 C-100.5078125 137.13671875 -100.5078125 137.13671875 -102.125 134.6875 C-102.66382813 133.88699219 -103.20265625 133.08648437 -103.7578125 132.26171875 C-105 130 -105 130 -105 127 C-105.66 127 -106.32 127 -107 127 C-110.44873663 119.50274646 -111.12451876 113.21823829 -111 105 C-114.63 105 -118.26 105 -122 105 C-124.83374078 99.33251843 -125.63223832 94.30267439 -126 88 C-126.66 88 -127.32 88 -128 88 C-128.33 84.7 -128.66 81.4 -129 78 C-129.66 78 -130.32 78 -131 78 C-131.33 74.7 -131.66 71.4 -132 68 C-132.66 68 -133.32 68 -134 68 C-134.48066535 69.89545392 -134.95946743 71.79138039 -135.4375 73.6875 C-135.70433594 74.74324219 -135.97117188 75.79898438 -136.24609375 76.88671875 C-136.89897932 79.5828317 -137.47941193 82.2757576 -138 85 C-138.66 85 -139.32 85 -140 85 C-140.2475 85.886875 -140.495 86.77375 -140.75 87.6875 C-142.06475782 91.17160823 -143.41278481 93.33669024 -146 96 C-148.25 96.8125 -148.25 96.8125 -150 97 C-150 97.66 -150 98.32 -150 99 C-152.475 99.495 -152.475 99.495 -155 100 C-155 100.66 -155 101.32 -155 102 C-159.455 102.495 -159.455 102.495 -164 103 C-164 103.66 -164 104.32 -164 105 C-174.56 105 -185.12 105 -196 105 C-196 80.58 -196 56.16 -196 31 C-182.03309481 29.83609123 -182.03309481 29.83609123 -175.25 29.875 C-174.56035156 29.87113281 -173.87070313 29.86726563 -173.16015625 29.86328125 C-168.36325554 29.87228106 -163.74987594 30.3290534 -159 31 C-159 31.66 -159 32.32 -159 33 C-156.69 33.33 -154.38 33.66 -152 34 C-152 34.66 -152 35.32 -152 36 C-151.29875 36.20625 -150.5975 36.4125 -149.875 36.625 C-146.04274884 38.45781577 -143.89547493 40.90251519 -141 44 C-141 41.69 -141 39.38 -141 37 C-141.66 37 -142.32 37 -143 37 C-143 35.02 -143 33.04 -143 31 C-139.18751574 30.97112764 -135.3750593 30.95324508 -131.5625 30.9375 C-130.47388672 30.92912109 -129.38527344 30.92074219 -128.26367188 30.91210938 C-127.22919922 30.90888672 -126.19472656 30.90566406 -125.12890625 30.90234375 C-124.17056885 30.89710693 -123.21223145 30.89187012 -122.22485352 30.88647461 C-120 31 -120 31 -119 32 C-118.95919217 33.99958364 -118.95745644 36.00045254 -119 38 C-118.34 38 -117.68 38 -117 38 C-116.505 43.445 -116.505 43.445 -116 49 C-115.34 49 -114.68 49 -114 49 C-113.90203125 49.77085937 -113.8040625 50.54171875 -113.703125 51.3359375 C-113.55359375 52.33882812 -113.4040625 53.34171875 -113.25 54.375 C-113.04117188 55.87160156 -113.04117188 55.87160156 -112.828125 57.3984375 C-112.55484375 58.25695312 -112.2815625 59.11546875 -112 60 C-110.68 60.66 -109.36 61.32 -108 62 C-107.67 58.37 -107.34 54.74 -107 51 C-106.34 51 -105.68 51 -105 51 C-104.67 47.37 -104.34 43.74 -104 40 C-103.34 40 -102.68 40 -102 40 C-101.67 37.03 -101.34 34.06 -101 31 C-97.58347651 30.82978175 -94.16685795 30.66327034 -90.75 30.5 C-89.74396729 30.45085449 -88.73793457 30.40170898 -87.70141602 30.35107422 C-81.56199077 30.06671772 -75.48277583 29.94373778 -69.33984375 30.2578125 C-66.33466877 29.92669138 -64.51560745 28.62050935 -62 27 C-61.34 27 -60.68 27 -60 27 C-60 26.34 -60 25.68 -60 25 C-58.35 24.67 -56.7 24.34 -55 24 C-55 23.34 -55 22.68 -55 22 C-53.22882813 21.16855469 -53.22882813 21.16855469 -51.421875 20.3203125 C-49.86457126 19.58856737 -48.30728026 18.85679511 -46.75 18.125 C-45.97269531 17.76019531 -45.19539062 17.39539063 -44.39453125 17.01953125 C-43.64042969 16.66503906 -42.88632813 16.31054688 -42.109375 15.9453125 C-41.07248535 15.45828857 -41.07248535 15.45828857 -40.01464844 14.96142578 C-38.63547059 14.30325778 -37.27418731 13.60660884 -35.93066406 12.87841797 C-34 12 -34 12 -31 12 C-31 11.34 -31 10.68 -31 10 C-27.535 9.505 -27.535 9.505 -24 9 C-24 8.34 -24 7.68 -24 7 C-21.36 6.67 -18.72 6.34 -16 6 C-16 5.34 -16 4.68 -16 4 C-11.545 3.505 -11.545 3.505 -7 3 C-7 2.34 -7 1.68 -7 1 C-4.50935112 0.31292445 -2.62113708 0 0 0 Z M-55 34 C-55 34.66 -55 35.32 -55 36 C-56.32 36.33 -57.64 36.66 -59 37 C-59 38.98 -59 40.96 -59 43 C-58.34 43 -57.68 43 -57 43 C-57.01740234 43.8353125 -57.01740234 43.8353125 -57.03515625 44.6875 C-57.09676433 49.89778343 -56.74999344 54.8437951 -56 60 C-52.52506183 54.20843638 -52.88540051 47.53217065 -53 41 C-52.34 41 -51.68 41 -51 41 C-50.67 37.7 -50.34 34.4 -50 31 C-52.04552042 31 -53.51557906 32.7550018 -55 34 Z M-139 48 C-138 50 -138 50 -138 50 Z M-176 51 C-176 62.22 -176 73.44 -176 85 C-170.20800328 85.13043257 -170.20800328 85.13043257 -165 84 C-165 83.34 -165 82.68 -165 82 C-164.01 81.67 -163.02 81.34 -162 81 C-161.67 79.35 -161.34 77.7 -161 76 C-160.34 76 -159.68 76 -159 76 C-159 70.06 -159 64.12 -159 58 C-159.66 58 -160.32 58 -161 58 C-161.12375 57.1028125 -161.12375 57.1028125 -161.25 56.1875 C-161.96193694 53.44296171 -161.96193694 53.44296171 -166 51 C-169.3 51 -172.6 51 -176 51 Z M-137 56 C-136.67 57.65 -136.34 59.3 -136 61 C-135.67 60.01 -135.34 59.02 -135 58 C-135.66 57.34 -136.32 56.68 -137 56 Z M-78 59 C-78 59.99 -78 60.98 -78 62 C-78.66 62 -79.32 62 -80 62 C-80.67305018 63.60149886 -81.33822227 65.20631029 -82 66.8125 C-82.37125 67.70582031 -82.7425 68.59914063 -83.125 69.51953125 C-84.16633237 72.0331433 -84.16633237 72.0331433 -84 75 C-84.66 75 -85.32 75 -86 75 C-86.33 78.63 -86.66 82.26 -87 86 C-87.66 86 -88.32 86 -89 86 C-89 90.62 -89 95.24 -89 100 C-88.34 100 -87.68 100 -87 100 C-86.67 102.31 -86.34 104.62 -86 107 C-85.34 107 -84.68 107 -84 107 C-83.91234375 107.58652344 -83.8246875 108.17304688 -83.734375 108.77734375 C-82.08291364 113.77564968 -76.37482283 117.05289983 -72.1875 119.9375 C-69.95556001 121.21845198 -69.95556001 121.21845198 -67 121 C-67 121.66 -67 122.32 -67 123 C-65.10751181 123.67610423 -63.2108398 124.34050439 -61.3125 125 C-59.72888672 125.556875 -59.72888672 125.556875 -58.11328125 126.125 C-55.21637944 126.9391857 -52.98299377 127.17709796 -50 127 C-50 127.66 -50 128.32 -50 129 C-49.14535156 129.13277344 -48.29070312 129.26554687 -47.41015625 129.40234375 C-45.75306641 129.66724609 -45.75306641 129.66724609 -44.0625 129.9375 C-42.96035156 130.11152344 -41.85820312 130.28554688 -40.72265625 130.46484375 C-38 131 -38 131 -37 132 C-31.29446341 132.91696124 -25.77086794 133.12022642 -20 133 C-20 133.99 -20 134.98 -20 136 C-30.89 135.67 -41.78 135.34 -53 135 C-53 134.34 -53 133.68 -53 133 C-53.75023437 132.90203125 -54.50046875 132.8040625 -55.2734375 132.703125 C-61.54735914 131.78653191 -66.9845035 130.408538 -72.796875 127.88671875 C-75.49170922 126.80209576 -78.11689312 126.30348494 -81 126 C-81 125.34 -81 124.68 -81 124 C-84.29549466 122.27735506 -87.33118845 120.70554068 -91 120 C-91 119.34 -91 118.68 -91 118 C-92.52620876 116.49153848 -92.52620876 116.49153848 -94.4375 115 C-97.89830508 112.20338983 -97.89830508 112.20338983 -99 110 C-99.66 110 -100.32 110 -101 110 C-101.28875 109.195625 -101.5775 108.39125 -101.875 107.5625 C-102.73262568 104.8673532 -102.73262568 104.8673532 -105 104 C-104.67 105.65 -104.34 107.3 -104 109 C-103.34 109 -102.68 109 -102 109 C-101.67 110.98 -101.34 112.96 -101 115 C-100.34 115 -99.68 115 -99 115 C-98.79375 115.680625 -98.5875 116.36125 -98.375 117.0625 C-96.57104973 120.91639375 -94.0989655 124.07787764 -91 127 C-90.34 127 -89.68 127 -89 127 C-89 127.66 -89 128.32 -89 129 C-87.68 129.33 -86.36 129.66 -85 130 C-85 130.66 -85 131.32 -85 132 C-83.35 132.33 -81.7 132.66 -80 133 C-80 133.66 -80 134.32 -80 135 C-76.535 135.495 -76.535 135.495 -73 136 C-73 136.66 -73 137.32 -73 138 C-68.32798795 139.20568053 -63.78503708 139.09382426 -59 139 C-59 139.66 -59 140.32 -59 141 C-50.75 141 -42.5 141 -34 141 C-34 140.34 -34 139.68 -34 139 C-32.824375 139.020625 -31.64875 139.04125 -30.4375 139.0625 C-26.52586533 139.06947261 -22.85502056 138.64250343 -19 138 C-19 137.34 -19 136.68 -19 136 C-14.05 135.505 -14.05 135.505 -9 135 C-9 134.34 -9 133.68 -9 133 C-6.36 132.67 -3.72 132.34 -1 132 C-1 131.34 -1 130.68 -1 130 C2.465 129.505 2.465 129.505 6 129 C6 128.34 6 127.68 6 127 C6.86625 126.896875 7.7325 126.79375 8.625 126.6875 C12.16683123 125.96601586 14.84312042 124.72876739 18 123 C18 122.34 18 121.68 18 121 C19.65 120.67 21.3 120.34 23 120 C23 119.34 23 118.68 23 118 C25.475 117.505 25.475 117.505 28 117 C28 116.34 28 115.68 28 115 C30.475 114.505 30.475 114.505 33 114 C33 113.34 33 112.68 33 112 C35.66666667 110.66666667 38.33333333 109.33333333 41 108 C41 107.34 41 106.68 41 106 C41.66 105.67 42.32 105.34 43 105 C36.07 104.505 36.07 104.505 29 104 C28.54427083 101.29817708 28.08854167 98.59635417 27.6328125 95.89453125 C26.99170581 92.58167916 26.99170581 92.58167916 25 88 C21.37 88 17.74 88 14 88 C12.40861915 92.17737474 11.78721942 95.53160785 12 100 C11.34 100 10.68 100 10 100 C10 101.65 10 103.3 10 105 C2.74 105 -4.52 105 -12 105 C-12.495 103.02 -12.495 103.02 -13 101 C-13.33 102.32 -13.66 103.64 -14 105 C-21.26 105 -28.52 105 -36 105 C-36 102.03 -36 99.06 -36 96 C-36.66 96 -37.32 96 -38 96 C-38.04898438 94.86820313 -38.09796875 93.73640625 -38.1484375 92.5703125 C-38.22346514 91.08851661 -38.29901297 89.606747 -38.375 88.125 C-38.4059375 87.37863281 -38.436875 86.63226563 -38.46875 85.86328125 C-38.55643831 81.46526812 -38.55643831 81.46526812 -41 78 C-41.95261487 82.76307437 -42.08333357 87.1666528 -42 92 C-42.66 92 -43.32 92 -44 92 C-44.33 96.29 -44.66 100.58 -45 105 C-52.59 105 -60.18 105 -68 105 C-68.33 101.37 -68.66 97.74 -69 94 C-69.66 94 -70.32 94 -71 94 C-70.979375 92.80375 -70.95875 91.6075 -70.9375 90.375 C-70.93117429 86.81995131 -71.30111125 83.49444376 -72 80 C-72.66 80 -73.32 80 -74 80 C-74.33 75.38 -74.66 70.76 -75 66 C-75.66 66 -76.32 66 -77 66 C-77 63.69 -77 61.38 -77 59 C-77.33 59 -77.66 59 -78 59 Z M19 66 C18.67 66.99 18.34 67.98 18 69 C18.99 69 19.98 69 21 69 C20.67 68.01 20.34 67.02 20 66 C19.67 66 19.34 66 19 66 Z M-8 77 C-8 78.98 -8 80.96 -8 83 C-7.34 82.67 -6.68 82.34 -6 82 C-6 80.35 -6 78.7 -6 77 C-6.66 77 -7.32 77 -8 77 Z M-9 83 C-9 84.65 -9 86.3 -9 88 C-8.67 88 -8.34 88 -8 88 C-8 86.35 -8 84.7 -8 83 C-8.33 83 -8.66 83 -9 83 Z M-11 89 C-11 90.65 -11 92.3 -11 94 C-10.34 93.67 -9.68 93.34 -9 93 C-9 91.68 -9 90.36 -9 89 C-9.66 89 -10.32 89 -11 89 Z M-12 95 C-11 99 -11 99 -11 99 Z " fill="#F1F1F2" transform="translate(296,180)"/>
<path d="M0 0 C3.45826342 -0.05789006 6.91640293 -0.09355821 10.375 -0.125 C11.35984375 -0.14175781 12.3446875 -0.15851563 13.359375 -0.17578125 C14.30039062 -0.18222656 15.24140625 -0.18867188 16.2109375 -0.1953125 C17.51490479 -0.21102295 17.51490479 -0.21102295 18.84521484 -0.22705078 C21 0 21 0 23 2 C23.44128253 4.70249497 23.7908012 7.34314937 24.0625 10.0625 C24.15515399 14.92433354 24.15515399 14.92433354 26 19 C26.495 17.515 26.495 17.515 27 16 C27.66 16 28.32 16 29 16 C29.33 10.72 29.66 5.44 30 0 C37.59 0 45.18 0 53 0 C53 2.64 53 5.28 53 8 C52.34 8 51.68 8 51 8 C50.92652344 9.17755859 50.92652344 9.17755859 50.8515625 10.37890625 C50.43551826 16.22504511 49.78296451 21.42823592 48 27 C47.63729412 28.99488234 47.29359301 30.9937811 47 33 C46.34 33 45.68 33 45 33 C45 35.64 45 38.28 45 41 C46.27253436 37.35206816 47.32829194 33.8063457 48 30 C48.66 30 49.32 30 50 30 C50.33 26.37 50.66 22.74 51 19 C51.66 19 52.32 19 53 19 C53.33 15.37 53.66 11.74 54 8 C54.66 8 55.32 8 56 8 C56.33 5.36 56.66 2.72 57 0 C65.58 0 74.16 0 83 0 C83.33 3.3 83.66 6.6 84 10 C84.66 10 85.32 10 86 10 C86.33 13.63 86.66 17.26 87 21 C87.66 21 88.32 21 89 21 C89.33 24.3 89.66 27.6 90 31 C90.66 31 91.32 31 92 31 C92.33 34.63 92.66 38.26 93 42 C93.66 42 94.32 42 95 42 C95.33 45.3 95.66 48.6 96 52 C96.66 52 97.32 52 98 52 C98.33 55.63 98.66 59.26 99 63 C99.66 63 100.32 63 101 63 C101.33 63.99 101.66 64.98 102 66 C103.175625 65.01 103.175625 65.01 104.375 64 C107 62 107 62 109 62 C109 61.34 109 60.68 109 60 C109.66 60 110.32 60 111 60 C110.40312566 63.34249629 109.26396123 65.46436342 107 68 C106.34 68 105.68 68 105 68 C104.773125 68.53625 104.54625 69.0725 104.3125 69.625 C100.3348949 76.82257113 93.50949925 83.5881117 86 87 C86 87.66 86 88.32 86 89 C83.74185152 90.79826445 81.48722261 92.4746801 79.125 94.125 C78.14853516 94.82689453 78.14853516 94.82689453 77.15234375 95.54296875 C72.26412172 99 72.26412172 99 70 99 C70 99.66 70 100.32 70 101 C68.68 101.33 67.36 101.66 66 102 C66 102.66 66 103.32 66 104 C64.02 104.33 62.04 104.66 60 105 C60 105.66 60 106.32 60 107 C58.35 107.33 56.7 107.66 55 108 C55 108.66 55 109.32 55 110 C53.02 110.33 51.04 110.66 49 111 C49 111.66 49 112.32 49 113 C45.535 113.495 45.535 113.495 42 114 C42 114.66 42 115.32 42 116 C40.10751181 116.67610423 38.2108398 117.34050439 36.3125 118 C35.25675781 118.37125 34.20101562 118.7425 33.11328125 119.125 C30.21637944 119.9391857 27.98299377 120.17709796 25 120 C25 120.66 25 121.32 25 122 C16.30975749 123.81020947 7.82574794 124.31461372 -1.02783203 124.26074219 C-3.12952263 124.24997683 -5.23036561 124.2607268 -7.33203125 124.2734375 C-14.76254238 124.27999634 -21.78895162 123.89730311 -29 122 C-29 121.34 -29 120.68 -29 120 C-30.98 119.67 -32.96 119.34 -35 119 C-35 118.34 -35 117.68 -35 117 C-36.65 116.67 -38.3 116.34 -40 116 C-40 115.34 -40 114.68 -40 114 C-40.598125 113.71125 -41.19625 113.4225 -41.8125 113.125 C-44 112 -44 112 -47 110 C-47 109.34 -47 108.68 -47 108 C-47.66 108 -48.32 108 -49 108 C-50.5078125 106.13671875 -50.5078125 106.13671875 -52.125 103.6875 C-52.93324219 102.48673828 -52.93324219 102.48673828 -53.7578125 101.26171875 C-55 99 -55 99 -55 96 C-55.66 96 -56.32 96 -57 96 C-60.5837709 88.20919369 -61.15161334 81.52403902 -61 73 C-59.02 73 -57.04 73 -55 73 C-54.67 74.65 -54.34 76.3 -54 78 C-53.34 78 -52.68 78 -52 78 C-51.67 79.98 -51.34 81.96 -51 84 C-50.34 84 -49.68 84 -49 84 C-47.40773752 86.1700263 -46.04268098 88.44632228 -44.6328125 90.73828125 C-42.96720527 93.04542619 -41.26763546 94.32626906 -39 96 C-39 96.66 -39 97.32 -39 98 C-37.68 98.33 -36.36 98.66 -35 99 C-35 99.66 -35 100.32 -35 101 C-33.35 101.33 -31.7 101.66 -30 102 C-30 102.66 -30 103.32 -30 104 C-27.69 104.33 -25.38 104.66 -23 105 C-23 105.66 -23 106.32 -23 107 C-16.07 107.495 -16.07 107.495 -9 108 C-9 108.66 -9 109.32 -9 110 C-0.75 110 7.5 110 16 110 C16 109.34 16 108.68 16 108 C20.95 107.67 25.9 107.34 31 107 C31 106.34 31 105.68 31 105 C35.95 104.505 35.95 104.505 41 104 C41 103.34 41 102.68 41 102 C43.64 101.67 46.28 101.34 49 101 C49 100.34 49 99.68 49 99 C52.465 98.505 52.465 98.505 56 98 C56 97.34 56 96.68 56 96 C57.43429001 95.32645501 58.87257057 94.66140299 60.3125 94 C61.11300781 93.62875 61.91351563 93.2575 62.73828125 92.875 C65 92 65 92 68 92 C68 91.34 68 90.68 68 90 C70.475 89.505 70.475 89.505 73 89 C73 88.34 73 87.68 73 87 C75.475 86.505 75.475 86.505 78 86 C78 85.34 78 84.68 78 84 C80.475 83.505 80.475 83.505 83 83 C83 82.34 83 81.68 83 81 C88.41176471 77 88.41176471 77 91 77 C91 76.34 91 75.68 91 75 C87.04 74.67 83.08 74.34 79 74 C78.566875 72.453125 78.566875 72.453125 78.125 70.875 C77.44725011 68.47867004 76.70539758 66.16529314 75.875 63.8125 C75 61 75 61 75 57 C71.37 57.33 67.74 57.66 64 58 C63.34 61.63 62.68 65.26 62 69 C61.34 69 60.68 69 60 69 C60 70.65 60 72.3 60 74 C52.74 74 45.48 74 38 74 C37.67 73.01 37.34 72.02 37 71 C36.505 72.485 36.505 72.485 36 74 C28.74 74 21.48 74 14 74 C14 71.03 14 68.06 14 65 C13.34 65 12.68 65 12 65 C11.01 57.08 11.01 57.08 10 49 C9.34 52.96 8.68 56.92 8 61 C7.34 61 6.68 61 6 61 C5.67 65.29 5.34 69.58 5 74 C-2.59 74 -10.18 74 -18 74 C-18.33 70.37 -18.66 66.74 -19 63 C-19.66 63 -20.32 63 -21 63 C-21.33 58.38 -21.66 53.76 -22 49 C-22.66 49 -23.32 49 -24 49 C-24.22142255 47.04310341 -24.4267568 45.08438048 -24.625 43.125 C-24.74101562 42.03445312 -24.85703125 40.94390625 -24.9765625 39.8203125 C-24.98816406 38.42425781 -24.98816406 38.42425781 -25 37 C-24.34 36.34 -23.68 35.68 -23 35 C-22.32331051 37.20528272 -21.65906502 39.41438609 -21 41.625 C-20.62875 42.85476562 -20.2575 44.08453125 -19.875 45.3515625 C-19.06272281 48.73846826 -18.82958987 51.53854429 -19 55 C-18.34 55 -17.68 55 -17 55 C-16.505 62.425 -16.505 62.425 -16 70 C-7.585 69.505 -7.585 69.505 1 69 C1.33 66.03 1.66 63.06 2 60 C2.66 60 3.32 60 4 60 C4.33 55.05 4.66 50.1 5 45 C5.66 45 6.32 45 7 45 C7.06058594 43.94039062 7.12117188 42.88078125 7.18359375 41.7890625 C7.26800127 40.40102779 7.35264917 39.01300768 7.4375 37.625 C7.47681641 36.92632812 7.51613281 36.22765625 7.55664062 35.5078125 C7.88671875 30.2265625 7.88671875 30.2265625 9 28 C9.66 28 10.32 28 11 28 C12.09055363 30.18110725 12.24826303 31.65319744 12.46484375 34.0703125 C12.54283203 34.885 12.62082031 35.6996875 12.70117188 36.5390625 C12.85656748 38.23942433 13.01026273 39.93994257 13.16210938 41.640625 C13.67374853 46.94836128 14.59626828 51.85480435 16 57 C16.38348863 58.58129881 16.7603913 60.16424153 17.125 61.75 C17.29257812 62.46671875 17.46015625 63.1834375 17.6328125 63.921875 C18 66 18 66 18 70 C23.28 70 28.56 70 34 70 C34.33 66.37 34.66 62.74 35 59 C35.66 59 36.32 59 37 59 C37.33 54.38 37.66 49.76 38 45 C38.66 45 39.32 45 40 45 C40.07347656 43.948125 40.07347656 43.948125 40.1484375 42.875 C40.7038816 35.82660592 41.95796151 29.57955483 43.93359375 22.79296875 C45.07509719 18.73289606 46.1136881 14.65644041 47.125 10.5625 C47.30675781 9.83095703 47.48851562 9.09941406 47.67578125 8.34570312 C48.11827774 6.56407251 48.55929488 4.78207458 49 3 C44.05 3 39.1 3 34 3 C34 5.31 34 7.62 34 10 C33.56359454 12.49114785 33.06354271 14.97200066 32.5 17.4375 C32.2215625 18.67371094 31.943125 19.90992188 31.65625 21.18359375 C31.4396875 22.11300781 31.223125 23.04242188 31 24 C30.34 24 29.68 24 29 24 C28.96261719 25.19238281 28.92523438 26.38476562 28.88671875 27.61328125 C28.82105968 29.179719 28.75461232 30.74612384 28.6875 32.3125 C28.66494141 33.09818359 28.64238281 33.88386719 28.61914062 34.69335938 C28.5659668 35.8293457 28.5659668 35.8293457 28.51171875 36.98828125 C28.48553467 37.68477783 28.45935059 38.38127441 28.43237305 39.09887695 C27.88776232 41.49350359 26.84170838 42.43272547 25 44 C24.77213542 41.94921875 24.54427083 39.8984375 24.31640625 37.84765625 C24.18113386 35.98859771 24.18113386 35.98859771 23 35 C22.72610705 33.39127672 22.50877078 31.77283869 22.31640625 30.15234375 C22.13174805 28.65477539 22.13174805 28.65477539 21.94335938 27.12695312 C21.6927273 25.02807017 21.44271055 22.92911364 21.19335938 20.83007812 C20.48283605 15.07594367 19.5498365 9.58880434 18 4 C13.05 4 8.1 4 3 4 C2.690625 5.794375 2.38125 7.58875 2.0625 9.4375 C1.125 14.875 1.125 14.875 0 16 C-0.33128328 18.56292789 -0.6160472 21.11710231 -0.875 23.6875 C-1.72883826 31.60866023 -3.15603096 39.24303692 -5 47 C-5.33 47 -5.66 47 -6 47 C-7.65053198 40.27997693 -8.62568099 33.58984419 -9.4921875 26.7265625 C-9.93807216 23.45445507 -10.49132215 20.23978955 -11.125 17 C-11.9088323 12.90325147 -12.18503959 9.16339068 -12 5 C-11.505 5.99 -11.505 5.99 -11 7 C-10.34 7 -9.68 7 -9 7 C-9 8.65 -9 10.3 -9 12 C-8.34 12 -7.68 12 -7 12 C-6.34 16.29 -5.68 20.58 -5 25 C-4.34 20.05 -3.68 15.1 -3 10 C-2.34 10 -1.68 10 -1 10 C-1.020625 8.72125 -1.04125 7.4425 -1.0625 6.125 C-1.125 2.25 -1.125 2.25 0 0 Z M69 35 C68.67 35.99 68.34 36.98 68 38 C68.99 38 69.98 38 71 38 C70.67 37.01 70.34 36.02 70 35 C69.67 35 69.34 35 69 35 Z M42 46 C42 47.98 42 49.96 42 52 C42.66 51.67 43.32 51.34 44 51 C44 49.35 44 47.7 44 46 C43.34 46 42.68 46 42 46 Z M41 52 C41 53.65 41 55.3 41 57 C41.33 57 41.66 57 42 57 C42 55.35 42 53.7 42 52 C41.67 52 41.34 52 41 52 Z M39 58 C39 59.65 39 61.3 39 63 C39.66 62.67 40.32 62.34 41 62 C41 60.68 41 59.36 41 58 C40.34 58 39.68 58 39 58 Z M38 64 C39 68 39 68 39 68 Z " fill="#F3F3F4" transform="translate(246,211)"/>
<path d="M0 0 C1.33130115 0.34135927 2.66358148 0.67925956 4 1 C4 1.66 4 2.32 4 3 C5.794375 3.1546875 5.794375 3.1546875 7.625 3.3125 C11.5624176 3.78891352 14.54140375 5.01130716 18 7 C18 7.66 18 8.32 18 9 C19.65 9.33 21.3 9.66 23 10 C23 10.66 23 11.32 23 12 C24.98 12.495 24.98 12.495 27 13 C27 13.66 27 14.32 27 15 C27.598125 15.268125 28.19625 15.53625 28.8125 15.8125 C30.99847854 16.99917406 32.41332594 18.09599113 34 20 C34 20.66 34 21.32 34 22 C34.66 22 35.32 22 36 22 C36.495 23.98 36.495 23.98 37 26 C37.66 26 38.32 26 39 26 C39.62867668 27.37332284 40.25273891 28.74875833 40.875 30.125 C41.22304688 30.89070313 41.57109375 31.65640625 41.9296875 32.4453125 C44.62389882 38.87602127 45.26024394 43.96715566 45.125 50.875 C45.11597656 51.75414062 45.10695313 52.63328125 45.09765625 53.5390625 C45.07424577 55.6928271 45.0383801 57.84645014 45 60 C44.34 60 43.68 60 43 60 C42.67 63.3 42.34 66.6 42 70 C41.34 70 40.68 70 40 70 C40 71.32 40 72.64 40 74 C40.66 74 41.32 74 42 74 C42.33 71.69 42.66 69.38 43 67 C44.65 66.67 46.3 66.34 48 66 C48 66.99 48 67.98 48 69 C47.34 69 46.68 69 46 69 C46.01160156 69.6290625 46.02320313 70.258125 46.03515625 70.90625 C46.09286873 76.38069088 45.80228473 81.58457806 45 87 C44.34 87 43.68 87 43 87 C42.67 91.29 42.34 95.58 42 100 C41.34 100 40.68 100 40 100 C39.95875 100.928125 39.9175 101.85625 39.875 102.8125 C39.12071102 108.45226069 35.84830459 113.18314238 33 118 C32.34 118 31.68 118 31 118 C30.67 119.65 30.34 121.3 30 123 C29.34 123 28.68 123 28 123 C27.773125 123.53625 27.54625 124.0725 27.3125 124.625 C25.54429911 127.82460161 23.46329797 130.29037223 21 133 C20.34 133 19.68 133 19 133 C18.67 133.99 18.34 134.98 18 136 C17.34 136 16.68 136 16 136 C16 136.66 16 137.32 16 138 C10.58823529 142 10.58823529 142 8 142 C8 142.66 8 143.32 8 144 C6.35 144.33 4.7 144.66 3 145 C3 145.66 3 146.32 3 147 C1.35 147.33 -0.3 147.66 -2 148 C-2 148.66 -2 149.32 -2 150 C-4.31 150.33 -6.62 150.66 -9 151 C-9 151.66 -9 152.32 -9 153 C-11.31 153.33 -13.62 153.66 -16 154 C-16 154.66 -16 155.32 -16 156 C-19.3 156.33 -22.6 156.66 -26 157 C-26 157.66 -26 158.32 -26 159 C-34.52164733 160.86411035 -42.80510803 161.19273158 -51.5 161.1875 C-52.55058594 161.18814453 -53.60117187 161.18878906 -54.68359375 161.18945312 C-59.27840537 161.15692872 -63.5023964 161.01459217 -68 160 C-68.33 158.68 -68.66 157.36 -69 156 C-67.91460937 155.95101562 -66.82921875 155.90203125 -65.7109375 155.8515625 C-64.26560216 155.77648014 -62.82029081 155.70093472 -61.375 155.625 C-60.30572266 155.57859375 -60.30572266 155.57859375 -59.21484375 155.53125 C-54.79996899 155.28822937 -51.1989763 154.47986844 -47 153 C-45.68 153 -44.36 153 -43 153 C-43 152.34 -43 151.68 -43 151 C-40.69 150.67 -38.38 150.34 -36 150 C-36 149.34 -36 148.68 -36 148 C-34.02 147.67 -32.04 147.34 -30 147 C-30 146.34 -30 145.68 -30 145 C-28.35 144.67 -26.7 144.34 -25 144 C-25 143.34 -25 142.68 -25 142 C-18.25 138 -18.25 138 -16 138 C-16 137.34 -16 136.68 -16 136 C-14.35443434 134.96564444 -12.6829392 133.97236487 -11 133 C-10.113125 132.278125 -9.22625 131.55625 -8.3125 130.8125 C-6 129 -6 129 -4 129 C-4 128.34 -4 127.68 -4 127 C-3.360625 126.896875 -2.72125 126.79375 -2.0625 126.6875 C-1.0415625 126.3471875 -1.0415625 126.3471875 0 126 C0.33 125.01 0.66 124.02 1 123 C2.53125 121.4921875 2.53125 121.4921875 4.5 119.875 C12.76067772 113.27979178 12.76067772 113.27979178 19 105 C19.66 105 20.32 105 21 105 C21 104.01 21 103.02 21 102 C20.08476562 102.9384375 19.16953125 103.876875 18.2265625 104.84375 C17.02630609 106.06276041 15.82577081 107.28149629 14.625 108.5 C14.02171875 109.12003906 13.4184375 109.74007812 12.796875 110.37890625 C12.21679688 110.96542969 11.63671875 111.55195313 11.0390625 112.15625 C10.50490723 112.70087891 9.97075195 113.24550781 9.42041016 113.80664062 C8 115 8 115 6 115 C6 115.66 6 116.32 6 117 C1.64705882 121 1.64705882 121 -2 121 C-2 121.66 -2 122.32 -2 123 C-3.32 123.33 -4.64 123.66 -6 124 C-6 124.66 -6 125.32 -6 126 C-7.32 126.33 -8.64 126.66 -10 127 C-10 127.66 -10 128.32 -10 129 C-10.99 129.33 -11.98 129.66 -13 130 C-13.495 130.515625 -13.99 131.03125 -14.5 131.5625 C-16 133 -16 133 -19 133 C-17.5666944 127.98343041 -15.09436048 125.98547118 -11 123 C-10.34 123 -9.68 123 -9 123 C-9 122.34 -9 121.68 -9 121 C-7.01739574 119.31267723 -5.0167658 117.64633943 -3 116 C-2.67 115.34 -2.34 114.68 -2 114 C-1.34 114 -0.68 114 0 114 C0.495 112.02 0.495 112.02 1 110 C1.66 110 2.32 110 3 110 C3.28875 109.401875 3.5775 108.80375 3.875 108.1875 C5 106 5 106 7 103 C7.66 103 8.32 103 9 103 C9.33 101.35 9.66 99.7 10 98 C10.66 98 11.32 98 12 98 C12.28875 97.2575 12.5775 96.515 12.875 95.75 C13.82302644 93.43260203 14.84845911 91.22082885 16 89 C16.66 89 17.32 89 18 89 C18.33 86.36 18.66 83.72 19 81 C19.66 81 20.32 81 21 81 C21.33 78.36 21.66 75.72 22 73 C22.66 73 23.32 73 24 73 C24.05859857 69.64590806 24.09379582 66.29194983 24.125 62.9375 C24.15013672 61.52307617 24.15013672 61.52307617 24.17578125 60.08007812 C24.21396753 54.60034675 23.74714555 50.18849285 22 45 C21.63049535 42.67212073 21.28647533 40.33954855 21 38 C20.34 38 19.68 38 19 38 C18.67 36.35 18.34 34.7 18 33 C17.34 33 16.68 33 16 33 C15.505 31.02 15.505 31.02 15 29 C14.34 29 13.68 29 13 29 C10.375 26.625 10.375 26.625 8 24 C8 23.34 8 22.68 8 22 C7.4225 21.71125 6.845 21.4225 6.25 21.125 C4.16666667 20.08333333 2.08333333 19.04166667 0 18 C0 17.34 0 16.68 0 16 C-0.680625 15.896875 -1.36125 15.79375 -2.0625 15.6875 C-5.62915989 14.85274981 -8.66222194 13.50527246 -12 12 C-12 11.34 -12 10.68 -12 10 C-14.97 9.67 -17.94 9.34 -21 9 C-21 8.34 -21 7.68 -21 7 C-25.29 6.67 -29.58 6.34 -34 6 C-34 5.34 -34 4.68 -34 4 C-48.52 4 -63.04 4 -78 4 C-78 2.68 -78 1.36 -78 0 C-74.7 0 -71.4 0 -68 0 C-68 -0.66 -68 -1.32 -68 -2 C-46.00198673 -4.44861189 -21.45525277 -6.47705744 0 0 Z M39 74 C40 77 40 77 40 77 Z M37 77 C37 77.99 37 78.98 37 80 C37.66 80 38.32 80 39 80 C39 79.01 39 78.02 39 77 C38.34 77 37.68 77 37 77 Z M36 80 C37 82 37 82 37 82 Z M34 83 C34.33 83.66 34.66 84.32 35 85 C35.33 84.34 35.66 83.68 36 83 C35.34 83 34.68 83 34 83 Z M33 85 C34 87 34 87 34 87 Z M32 87 C32 90 32 90 32 90 Z M30 90 C31 92 31 92 31 92 Z M28 92 C28.33 92.66 28.66 93.32 29 94 C29.33 93.34 29.66 92.68 30 92 C29.34 92 28.68 92 28 92 Z M27 94 C28 96 28 96 28 96 Z M25 96 C25.33 96.66 25.66 97.32 26 98 C26.33 97.34 26.66 96.68 27 96 C26.34 96 25.68 96 25 96 Z M23 99 C22.67 99.66 22.34 100.32 22 101 C22.66 101 23.32 101 24 101 C23.67 100.34 23.34 99.68 23 99 Z " fill="#B5D55C" transform="translate(350,174)"/>
<path d="M0 0 C1.25961548 -0.01455482 1.25961548 -0.01455482 2.54467773 -0.02940369 C5.24598006 -0.05422588 7.94703269 -0.06691491 10.6484375 -0.07421875 C11.56872742 -0.07683716 12.48901733 -0.07945557 13.43719482 -0.08215332 C27.37517801 -0.08640891 40.47618879 0.75265787 54.0234375 4.23828125 C55.34676131 4.53398183 56.67095371 4.82582933 57.99609375 5.11328125 C103.83483488 15.91020871 141.80740215 48.38507803 166.13330078 87.69189453 C171.41700868 96.49943386 175.53059811 105.59046919 179.0234375 115.23828125 C179.29140137 115.96708496 179.55936523 116.69588867 179.83544922 117.44677734 C187.07967727 137.50939805 189.38651619 157.32961974 189.4609375 178.55078125 C189.47033356 179.80294937 189.47033356 179.80294937 189.47991943 181.08041382 C189.55610793 197.13862083 187.68687129 212.80999599 183.3359375 228.30078125 C183.08175049 229.21432373 182.82756348 230.12786621 182.56567383 231.0690918 C179.9102959 240.21627665 176.23919208 248.71567303 172.0234375 257.23828125 C171.67941895 257.95322754 171.33540039 258.66817383 170.98095703 259.40478516 C163.82141126 274.20785532 154.45993573 286.96798729 143.1796875 298.90625 C140.9464182 301.2513787 140.9464182 301.2513787 138.8671875 304.0390625 C137.95453125 305.12767578 137.95453125 305.12767578 137.0234375 306.23828125 C136.3634375 306.23828125 135.7034375 306.23828125 135.0234375 306.23828125 C134.75950195 306.83809814 134.49556641 307.43791504 134.22363281 308.0559082 C132.96679313 310.34128044 131.82620229 311.51704955 129.8203125 313.15625 C128.85520752 313.94769409 128.85520752 313.94769409 127.87060547 314.75512695 C126.83250732 315.58210083 126.83250732 315.58210083 125.7734375 316.42578125 C125.05687988 317.00094482 124.34032227 317.5761084 123.60205078 318.16870117 C117.02561436 323.37075095 110.20189979 327.91966559 103.0234375 332.23828125 C101.95222656 332.91375 100.88101562 333.58921875 99.77734375 334.28515625 C89.73218003 340.39034409 79.07185794 344.33775647 68.0234375 348.23828125 C66.90453125 348.65078125 65.785625 349.06328125 64.6328125 349.48828125 C61.451727 350.57699501 58.29102913 351.44269372 55.0234375 352.23828125 C54.28609375 352.41875 53.54875 352.59921875 52.7890625 352.78515625 C27.51344888 358.66690282 -3.65027159 359.54785587 -28.9765625 353.23828125 C-30.40476318 352.8837085 -30.40476318 352.8837085 -31.86181641 352.52197266 C-44.54498063 349.27085157 -56.34822365 345.2553519 -67.9765625 339.23828125 C-69.01683594 338.74585938 -70.05710937 338.2534375 -71.12890625 337.74609375 C-86.84379023 330.26281567 -102.88951888 318.89829985 -114.9765625 306.23828125 C-114.9765625 305.57828125 -114.9765625 304.91828125 -114.9765625 304.23828125 C-115.55148438 303.9959375 -116.12640625 303.75359375 -116.71875 303.50390625 C-139.76468551 290.58542337 -154.43916334 251.46759711 -161.38671875 227.43359375 C-161.83806596 225.80729562 -162.28479464 224.1797076 -162.7265625 222.55078125 C-162.92531982 221.82785889 -163.12407715 221.10493652 -163.32885742 220.36010742 C-166.90826747 206.55951018 -167.37987201 192.90514436 -167.3515625 178.73828125 C-167.35168335 177.80930023 -167.3518042 176.88031921 -167.35192871 175.92318726 C-167.32756633 162.77614037 -166.82713125 150.12035793 -163.51464844 137.32568359 C-163.01277268 135.37875178 -162.58913707 133.41211577 -162.171875 131.4453125 C-157.79281987 112.32343844 -148.86119028 94.42896469 -137.9765625 78.23828125 C-137.37424805 77.31595703 -137.37424805 77.31595703 -136.75976562 76.375 C-131.78704388 68.77939507 -126.16022717 62.01005918 -119.9765625 55.36328125 C-119.31688477 54.65413574 -118.65720703 53.94499023 -117.97753906 53.21435547 C-114.42769265 49.489881 -114.42769265 49.489881 -112.9765625 48.23828125 C-112.3165625 48.23828125 -111.6565625 48.23828125 -110.9765625 48.23828125 C-110.6465625 47.24828125 -110.3165625 46.25828125 -109.9765625 45.23828125 C-107.86683124 43.39556744 -105.76378959 41.68071345 -103.5390625 39.98828125 C-102.8994458 39.49593994 -102.2598291 39.00359863 -101.60083008 38.49633789 C-99.73345466 37.06691066 -97.85726256 35.65011306 -95.9765625 34.23828125 C-95.13351563 33.60277344 -94.29046875 32.96726563 -93.421875 32.3125 C-80.55709024 22.98664392 -66.85652266 15.73496951 -51.9765625 10.23828125 C-50.75582031 9.77679688 -49.53507812 9.3153125 -48.27734375 8.83984375 C-32.88180213 3.34738025 -16.35310758 0.15750744 0 0 Z M-110.9765625 53.23828125 C-111.76675781 53.96273437 -112.55695313 54.6871875 -113.37109375 55.43359375 C-145.24735417 85.81645909 -162.41489841 130.10417133 -163.953125 173.61083984 C-164.87050298 221.81413825 -146.5998712 265.25335256 -113.9765625 300.23828125 C-113.25210938 301.02847656 -112.52765625 301.81867188 -111.78125 302.6328125 C-81.39838466 334.50907292 -37.11067242 351.67661716 6.39599609 353.21484375 C54.5992945 354.13222173 98.03850881 335.86158995 133.0234375 303.23828125 C133.81363281 302.51382812 134.60382813 301.789375 135.41796875 301.04296875 C167.29422917 270.66010341 184.46177341 226.37239117 186 182.86572266 C186.91737798 134.66242425 168.6467462 91.22320994 136.0234375 56.23828125 C135.29898437 55.44808594 134.57453125 54.65789062 133.828125 53.84375 C103.44525966 21.96748958 59.15754742 4.79994534 15.65087891 3.26171875 C-32.5524195 2.34434077 -75.99163381 20.61497255 -110.9765625 53.23828125 Z " fill="#A4A4A4" transform="translate(242.9765625,71.76171875)"/>
<path d="M0 0 C5.28 0 10.56 0 16 0 C16.79357442 4.08297067 17.58490367 8.16635607 18.375 12.25 C18.59671875 13.38953125 18.8184375 14.5290625 19.046875 15.703125 C20.33553698 22.37384583 21.52490672 29.04521307 22.55712891 35.76074219 C22.77671961 37.96221265 22.77671961 37.96221265 24 39 C25.71403118 32.26630607 26.58996395 25.57667046 27.30224609 18.67797852 C27.89859783 13.10140217 27.89859783 13.10140217 29 12 C29.3698855 10.17369035 29.69673464 8.33854626 30 6.5 C30.88888889 1.11111111 30.88888889 1.11111111 32 0 C34.53049402 -0.07313567 37.03304837 -0.09247527 39.5625 -0.0625 C40.62887695 -0.05573242 40.62887695 -0.05573242 41.71679688 -0.04882812 C43.47790013 -0.03700864 45.23896036 -0.01907263 47 0 C49.6797521 6.91887096 50.80513516 13.64916642 51.625 21 C51.86351807 23.06292757 52.10550817 25.12545774 52.3515625 27.1875 C52.45291504 28.08855469 52.55426758 28.98960937 52.65869141 29.91796875 C52.78948505 31.98395284 52.78948505 31.98395284 54 33 C54.36760731 35.32817964 54.70241581 37.6618385 55 40 C56.64920633 36.70158734 56.66486707 33.0037687 57.0625 29.375 C57.15337891 28.57320312 57.24425781 27.77140625 57.33789062 26.9453125 C57.56197653 24.96392132 57.7814275 22.98200695 58 21 C58.66 21 59.32 21 60 21 C60.185625 19.14375 60.185625 19.14375 60.375 17.25 C61.01240745 11.45790621 62.01012683 5.74126437 63 0 C67.95 0 72.9 0 78 0 C77.55361159 6.51727074 76.59046795 10.99011436 74 17 C73.41367936 19.89308579 72.97511451 22.79160624 72.5390625 25.7109375 C71.63904531 31.20234673 70.30798354 36.59366805 69 42 C68.34 42 67.68 42 67 42 C67.020625 43.19625 67.04125 44.3925 67.0625 45.625 C67.06882571 49.18004869 66.69888875 52.50555624 66 56 C65.34 56 64.68 56 64 56 C63.67 59.63 63.34 63.26 63 67 C57.72 67 52.44 67 47 67 C45.49524348 62.48573043 44.57135589 58.8734194 43.9375 54.25 C43.43705256 49.9803039 43.43705256 49.9803039 42 46 C41.78058781 44.4087658 41.60940148 42.81070969 41.46484375 41.2109375 C41.33432617 39.79941406 41.33432617 39.79941406 41.20117188 38.359375 C41.11416016 37.37453125 41.02714844 36.3896875 40.9375 35.375 C40.84662109 34.38242188 40.75574219 33.38984375 40.66210938 32.3671875 C40.43781564 29.91176132 40.21726893 27.45605611 40 25 C39.34 25 38.68 25 38 25 C37.34 30.61 36.68 36.22 36 42 C35.34 42 34.68 42 34 42 C34.01160156 42.58007812 34.02320313 43.16015625 34.03515625 43.7578125 C34.08762174 48.2998246 33.91751063 52.52713569 33 57 C32.34 57 31.68 57 31 57 C31.01160156 57.63808594 31.02320313 58.27617187 31.03515625 58.93359375 C31.04417969 59.75988281 31.05320313 60.58617187 31.0625 61.4375 C31.07410156 62.26121094 31.08570313 63.08492188 31.09765625 63.93359375 C31 66 31 66 30 67 C27.13732433 67.07325168 24.299281 67.09238205 21.4375 67.0625 C20.63119141 67.05798828 19.82488281 67.05347656 18.99414062 67.04882812 C16.99606244 67.03700518 14.99802217 67.01906914 13 67 C12.21341226 61.89027647 11.90963557 57.15077262 12 52 C11.34 52 10.68 52 10 52 C9.80664062 50.70964844 9.61328125 49.41929687 9.4140625 48.08984375 C9.15127805 46.37235965 8.88824396 44.65491373 8.625 42.9375 C8.49867188 42.08994141 8.37234375 41.24238281 8.2421875 40.36914062 C7.48058271 35.43774962 6.39146786 30.79871235 5 26 C4.24726941 22.47033263 3.59116572 18.92418118 2.9375 15.375 C2.59258597 13.52862004 2.24753823 11.68226505 1.90234375 9.8359375 C1.75273193 9.02688965 1.60312012 8.2178418 1.44897461 7.38427734 C0.98479151 4.91923541 0.49193096 2.45965478 0 0 Z " fill="#575C63" transform="translate(217,214)"/>
<path d="M0 0 C0.94617188 -0.00128906 1.89234375 -0.00257813 2.8671875 -0.00390625 C4.32511719 0.00189453 4.32511719 0.00189453 5.8125 0.0078125 C6.78445312 0.00394531 7.75640625 0.00007812 8.7578125 -0.00390625 C13.55439231 0.0026286 18.09756547 0.12929603 22.8125 1.1328125 C22.8125 1.7928125 22.8125 2.4528125 22.8125 3.1328125 C24.2046875 3.0709375 24.2046875 3.0709375 25.625 3.0078125 C28.8125 3.1328125 28.8125 3.1328125 31.8125 5.1328125 C31.8125 5.7928125 31.8125 6.4528125 31.8125 7.1328125 C32.4725 7.1328125 33.1325 7.1328125 33.8125 7.1328125 C35.5390625 8.7421875 35.5390625 8.7421875 37.4375 10.8828125 C38.06914062 11.57890625 38.70078125 12.275 39.3515625 12.9921875 C40.8125 15.1328125 40.8125 15.1328125 40.8125 19.1328125 C41.4725 19.1328125 42.1325 19.1328125 42.8125 19.1328125 C43.62684143 21.98441641 43.93131242 24.49907381 43.91015625 27.4609375 C43.90693359 28.26015625 43.90371094 29.059375 43.90039062 29.8828125 C43.88782227 31.1203125 43.88782227 31.1203125 43.875 32.3828125 C43.87048828 33.22328125 43.86597656 34.06375 43.86132812 34.9296875 C43.84957961 36.99742651 43.83164522 39.06512874 43.8125 41.1328125 C43.1525 41.1328125 42.4925 41.1328125 41.8125 41.1328125 C41.4825 44.1028125 41.1525 47.0728125 40.8125 50.1328125 C40.1525 50.1328125 39.4925 50.1328125 38.8125 50.1328125 C38.73 50.8753125 38.6475 51.6178125 38.5625 52.3828125 C37.66440201 55.67583845 36.42833926 56.99258038 33.8125 59.1328125 C33.1525 59.1328125 32.4925 59.1328125 31.8125 59.1328125 C31.8125 59.7928125 31.8125 60.4528125 31.8125 61.1328125 C17.63855319 69.81073912 7.61641229 67.1328125 -11.1875 67.1328125 C-11.1875 45.3528125 -11.1875 23.5728125 -11.1875 1.1328125 C-7.16971534 0.46318172 -3.96260712 0.00524551 0 0 Z M6.8125 17.1328125 C6.8125 28.3528125 6.8125 39.5728125 6.8125 51.1328125 C12.60449672 51.26324507 12.60449672 51.26324507 17.8125 50.1328125 C17.8125 49.4728125 17.8125 48.8128125 17.8125 48.1328125 C18.8025 47.8028125 19.7925 47.4728125 20.8125 47.1328125 C21.1425 45.4828125 21.4725 43.8328125 21.8125 42.1328125 C22.4725 42.1328125 23.1325 42.1328125 23.8125 42.1328125 C23.8125 36.1928125 23.8125 30.2528125 23.8125 24.1328125 C23.1525 24.1328125 22.4925 24.1328125 21.8125 24.1328125 C21.68875 23.235625 21.68875 23.235625 21.5625 22.3203125 C20.85056306 19.57577421 20.85056306 19.57577421 16.8125 17.1328125 C13.5125 17.1328125 10.2125 17.1328125 6.8125 17.1328125 Z " fill="#595E64" transform="translate(113.1875,213.8671875)"/>
<path d="M0 0 C1.98 0 3.96 0 6 0 C6.33 1.65 6.66 3.3 7 5 C7.66 5 8.32 5 9 5 C9.33 6.98 9.66 8.96 10 11 C10.66 11 11.32 11 12 11 C13.59226248 13.1700263 14.95731902 15.44632228 16.3671875 17.73828125 C18.03279473 20.04542619 19.73236454 21.32626906 22 23 C22 23.66 22 24.32 22 25 C23.32 25.33 24.64 25.66 26 26 C26 26.66 26 27.32 26 28 C27.65 28.33 29.3 28.66 31 29 C31 29.66 31 30.32 31 31 C33.31 31.33 35.62 31.66 38 32 C38 32.66 38 33.32 38 34 C44.93 34.495 44.93 34.495 52 35 C52 35.66 52 36.32 52 37 C60.25 37 68.5 37 77 37 C77 36.34 77 35.68 77 35 C81.95 34.67 86.9 34.34 92 34 C92 33.34 92 32.68 92 32 C95.3 31.67 98.6 31.34 102 31 C102 30.34 102 29.68 102 29 C105.96 28.505 105.96 28.505 110 28 C110 27.34 110 26.68 110 26 C112.31 25.67 114.62 25.34 117 25 C117 24.34 117 23.68 117 23 C118.43429001 22.32645501 119.87257057 21.66140299 121.3125 21 C122.51326172 20.443125 122.51326172 20.443125 123.73828125 19.875 C126 19 126 19 129 19 C129 18.34 129 17.68 129 17 C130.65 16.67 132.3 16.34 134 16 C134 15.34 134 14.68 134 14 C135.65 13.67 137.3 13.34 139 13 C139 12.34 139 11.68 139 11 C140.65 10.67 142.3 10.34 144 10 C144 9.34 144 8.68 144 8 C149.41176471 4 149.41176471 4 152 4 C152 3.34 152 2.68 152 2 C155.13498292 0.14223235 157.37471432 -0.20140476 161 0 C159.64527694 5.58823264 155.41886827 8.69001754 151 12 C149.68535911 12.70280975 148.3567815 13.38245147 147 14 C147 14.66 147 15.32 147 16 C144.74185152 17.79826445 142.48722261 19.4746801 140.125 21.125 C139.14853516 21.82689453 139.14853516 21.82689453 138.15234375 22.54296875 C133.26412172 26 133.26412172 26 131 26 C131 26.66 131 27.32 131 28 C129.02 28.495 129.02 28.495 127 29 C127 29.66 127 30.32 127 31 C125.02 31.33 123.04 31.66 121 32 C121 32.66 121 33.32 121 34 C119.35 34.33 117.7 34.66 116 35 C116 35.66 116 36.32 116 37 C114.02 37.33 112.04 37.66 110 38 C110 38.66 110 39.32 110 40 C106.535 40.495 106.535 40.495 103 41 C103 41.66 103 42.32 103 43 C101.10751181 43.67610423 99.2108398 44.34050439 97.3125 45 C96.25675781 45.37125 95.20101562 45.7425 94.11328125 46.125 C91.21637944 46.9391857 88.98299377 47.17709796 86 47 C86 47.66 86 48.32 86 49 C77.30975749 50.81020947 68.82574794 51.31461372 59.97216797 51.26074219 C57.87047737 51.24997683 55.76963439 51.2607268 53.66796875 51.2734375 C46.23745762 51.27999634 39.21104838 50.89730311 32 49 C32 48.34 32 47.68 32 47 C30.02 46.67 28.04 46.34 26 46 C26 45.34 26 44.68 26 44 C24.35 43.67 22.7 43.34 21 43 C21 42.34 21 41.68 21 41 C20.1028125 40.566875 20.1028125 40.566875 19.1875 40.125 C17 39 17 39 14 37 C14 36.34 14 35.68 14 35 C13.34 35 12.68 35 12 35 C10.4921875 33.13671875 10.4921875 33.13671875 8.875 30.6875 C8.33617187 29.88699219 7.79734375 29.08648437 7.2421875 28.26171875 C6 26 6 26 6 23 C5.34 23 4.68 23 4 23 C0.4162291 15.20919369 -0.15161334 8.52403902 0 0 Z " fill="#B4D45C" transform="translate(185,284)"/>
<path d="M0 0 C0.79075928 0.00523682 1.58151855 0.01047363 2.39624023 0.01586914 C3.67724609 0.02070313 3.67724609 0.02070313 4.98413086 0.02563477 C5.88196289 0.03401367 6.77979492 0.04239258 7.70483398 0.05102539 C8.6065332 0.05553711 9.50823242 0.06004883 10.43725586 0.06469727 C12.67234712 0.07652315 14.90730835 0.09300319 17.14233398 0.11352539 C17.63733398 3.57852539 17.63733398 3.57852539 18.14233398 7.11352539 C18.80233398 7.11352539 19.46233398 7.11352539 20.14233398 7.11352539 C20.81451906 9.86228221 21.48025833 12.61233265 22.14233398 15.36352539 C22.33311523 16.14083008 22.52389648 16.91813477 22.72045898 17.71899414 C22.90092773 18.4730957 23.08139648 19.22719727 23.26733398 20.00415039 C23.51870117 21.04104004 23.51870117 21.04104004 23.77514648 22.09887695 C24.14233398 24.11352539 24.14233398 24.11352539 24.14233398 28.11352539 C24.80233398 28.11352539 25.46233398 28.11352539 26.14233398 28.11352539 C26.81451906 30.86228221 27.48025833 33.61233265 28.14233398 36.36352539 C28.33311523 37.14083008 28.52389648 37.91813477 28.72045898 38.71899414 C28.90092773 39.4730957 29.08139648 40.22719727 29.26733398 41.00415039 C29.51870117 42.04104004 29.51870117 42.04104004 29.77514648 43.09887695 C30.14233398 45.11352539 30.14233398 45.11352539 30.14233398 49.11352539 C30.80233398 49.11352539 31.46233398 49.11352539 32.14233398 49.11352539 C32.62453661 50.98774692 33.10295231 52.86294293 33.57983398 54.73852539 C33.84666992 55.78266602 34.11350586 56.82680664 34.38842773 57.90258789 C35.10685937 60.96243664 35.66210114 64.00833049 36.14233398 67.11352539 C33.51672289 67.19426742 30.89357722 67.25388769 28.26733398 67.30102539 C27.5209668 67.32616211 26.77459961 67.35129883 26.00561523 67.37719727 C23.83764648 67.40649414 23.83764648 67.40649414 20.14233398 67.11352539 C18.18254029 64.17383486 17.6591333 62.56329954 17.01733398 59.17602539 C16.84975586 58.32137695 16.68217773 57.46672852 16.50952148 56.58618164 C16.14233398 54.11352539 16.14233398 54.11352539 16.14233398 50.11352539 C10.53233398 50.11352539 4.92233398 50.11352539 -0.85766602 50.11352539 C-0.96079102 51.43352539 -1.06391602 52.75352539 -1.17016602 54.11352539 C-1.68071729 58.85114092 -3.02403367 62.72875239 -4.85766602 67.11352539 C-9.80766602 67.11352539 -14.75766602 67.11352539 -19.85766602 67.11352539 C-18.33659631 57.28507497 -16.76085297 47.61467688 -12.91625977 38.39868164 C-10.81906527 33.24997295 -9.4924488 28.09477934 -8.29516602 22.67602539 C-7.87321654 20.83850348 -7.45005024 19.00126054 -7.02563477 17.16430664 C-6.82631348 16.29499512 -6.62699219 15.42568359 -6.42163086 14.5300293 C-3.07445446 0.18788557 -3.07445446 0.18788557 0 0 Z M7.14233398 32.11352539 C6.81233398 33.10352539 6.48233398 34.09352539 6.14233398 35.11352539 C7.13233398 35.11352539 8.12233398 35.11352539 9.14233398 35.11352539 C8.81233398 34.12352539 8.48233398 33.13352539 8.14233398 32.11352539 C7.81233398 32.11352539 7.48233398 32.11352539 7.14233398 32.11352539 Z " fill="#585D64" transform="translate(307.857666015625,213.886474609375)"/>
<path d="M0 0 C0 0.99 0 1.98 0 3 C-0.66 3 -1.32 3 -2 3 C-1.98839844 3.6290625 -1.97679687 4.258125 -1.96484375 4.90625 C-1.90713127 10.38069088 -2.19771527 15.58457806 -3 21 C-3.66 21 -4.32 21 -5 21 C-5.33 25.29 -5.66 29.58 -6 34 C-6.66 34 -7.32 34 -8 34 C-8.04125 34.928125 -8.0825 35.85625 -8.125 36.8125 C-8.87928898 42.45226069 -12.15169541 47.18314238 -15 52 C-15.66 52 -16.32 52 -17 52 C-17.33 53.65 -17.66 55.3 -18 57 C-18.66 57 -19.32 57 -20 57 C-20.226875 57.53625 -20.45375 58.0725 -20.6875 58.625 C-22.45570089 61.82460161 -24.53670203 64.29037223 -27 67 C-27.66 67 -28.32 67 -29 67 C-29.495 68.485 -29.495 68.485 -30 70 C-30.66 70 -31.32 70 -32 70 C-32 70.66 -32 71.32 -32 72 C-37.41176471 76 -37.41176471 76 -40 76 C-40 76.66 -40 77.32 -40 78 C-41.65 78.33 -43.3 78.66 -45 79 C-45 79.66 -45 80.32 -45 81 C-46.65 81.33 -48.3 81.66 -50 82 C-50 82.66 -50 83.32 -50 84 C-53.465 84.495 -53.465 84.495 -57 85 C-57 85.66 -57 86.32 -57 87 C-60.465 87.495 -60.465 87.495 -64 88 C-64 88.66 -64 89.32 -64 90 C-68.95 90.495 -68.95 90.495 -74 91 C-74 91.66 -74 92.32 -74 93 C-82.52164733 94.86411035 -90.80510803 95.19273158 -99.5 95.1875 C-100.55058594 95.18814453 -101.60117187 95.18878906 -102.68359375 95.18945312 C-107.27840537 95.15692872 -111.5023964 95.01459217 -116 94 C-116.33 92.68 -116.66 91.36 -117 90 C-115.91460937 89.95101562 -114.82921875 89.90203125 -113.7109375 89.8515625 C-112.26560216 89.77648014 -110.82029081 89.70093472 -109.375 89.625 C-108.66214844 89.5940625 -107.94929688 89.563125 -107.21484375 89.53125 C-102.79996899 89.28822937 -99.1989763 88.47986844 -95 87 C-93.68 87 -92.36 87 -91 87 C-91 86.34 -91 85.68 -91 85 C-87.535 84.505 -87.535 84.505 -84 84 C-84 83.34 -84 82.68 -84 82 C-81.03 81.505 -81.03 81.505 -78 81 C-78 80.34 -78 79.68 -78 79 C-75.525 78.505 -75.525 78.505 -73 78 C-73 77.34 -73 76.68 -73 76 C-66.25 72 -66.25 72 -64 72 C-64 71.34 -64 70.68 -64 70 C-62.35443434 68.96564444 -60.6829392 67.97236487 -59 67 C-58.113125 66.278125 -57.22625 65.55625 -56.3125 64.8125 C-54 63 -54 63 -52 63 C-52 62.34 -52 61.68 -52 61 C-51.0409375 60.8453125 -51.0409375 60.8453125 -50.0625 60.6875 C-49.381875 60.460625 -48.70125 60.23375 -48 60 C-47.67 59.01 -47.34 58.02 -47 57 C-45.46875 55.4921875 -45.46875 55.4921875 -43.5 53.875 C-35.23932228 47.27979178 -35.23932228 47.27979178 -29 39 C-28.34 39 -27.68 39 -27 39 C-26.67 37.68 -26.34 36.36 -26 35 C-25.34 35 -24.68 35 -24 35 C-23.73960937 34.43925781 -23.47921875 33.87851562 -23.2109375 33.30078125 C-21.8712488 30.75537271 -20.30739434 28.52007731 -18.625 26.1875 C-15.81819286 22.23218723 -13.31474403 18.25912902 -11 14 C-10.34 14 -9.68 14 -9 14 C-8.67 12.02 -8.34 10.04 -8 8 C-7.34 8 -6.68 8 -6 8 C-5.814375 6.2984375 -5.814375 6.2984375 -5.625 4.5625 C-5.41875 3.386875 -5.2125 2.21125 -5 1 C-3 0 -3 0 0 0 Z " fill="#51565D" transform="translate(398,240)"/>
<path d="M0 0 C5.61 0 11.22 0 17 0 C19.28571429 10.57142857 19.28571429 10.57142857 19 16 C19.66 16 20.32 16 21 16 C21.12117188 16.72445312 21.24234375 17.44890625 21.3671875 18.1953125 C21.53476563 19.16210938 21.70234375 20.12890625 21.875 21.125 C22.11863281 22.55199219 22.11863281 22.55199219 22.3671875 24.0078125 C23.02350905 27.11116006 23.99405633 29.99368743 25 33 C25.78590675 36.41476481 26.50549531 39.83893126 27.21875 43.26953125 C27.4765625 44.17058594 27.734375 45.07164062 28 46 C28.66 46.33 29.32 46.66 30 47 C29.94585937 45.27910156 29.94585937 45.27910156 29.890625 43.5234375 C29.89457573 39.03343528 30.67010038 34.96793425 31.75 30.625 C31.92974365 29.87968018 32.1094873 29.13436035 32.29467773 28.36645508 C33.50352176 23.52634254 35.05138155 19.00148255 37.05078125 14.42578125 C38.87641075 9.76028365 39.86711404 4.87140963 41 0 C46.28 0 51.56 0 57 0 C57 0.99 57 1.98 57 3 C56.34 3 55.68 3 55 3 C54.95101562 3.56847656 54.90203125 4.13695312 54.8515625 4.72265625 C54.25957259 10.83648313 52.94246045 16.17261865 51 22 C50.34 22 49.68 22 49 22 C49.04125 22.721875 49.0825 23.44375 49.125 24.1875 C48.98711227 27.289974 48.15144245 29.12139387 47 32 C46.24469454 35.31721994 45.61082796 38.65344255 45 42 C44.34 42 43.68 42 43 42 C42.896875 43.27875 42.79375 44.5575 42.6875 45.875 C42.11866692 51.13670594 40.6625387 55.99147146 39 61 C38.34 61 37.68 61 37 61 C37.020625 61.804375 37.04125 62.60875 37.0625 63.4375 C37 66 37 66 36 67 C33.13732433 67.07325168 30.299281 67.09238205 27.4375 67.0625 C26.63119141 67.05798828 25.82488281 67.05347656 24.99414062 67.04882812 C22.99606244 67.03700518 20.99802217 67.01906914 19 67 C15.93393177 58.95691869 14.30524534 51.60791872 14 43 C13.34 43 12.68 43 12 43 C12 41.35 12 39.7 12 38 C11.34 38 10.68 38 10 38 C9.67 34.7 9.34 31.4 9 28 C8.34 28 7.68 28 7 28 C4.95538064 22.2750658 3.29704148 16.51536315 1.8125 10.625 C1.63364258 9.92310547 1.45478516 9.22121094 1.27050781 8.49804688 C0.54898436 5.58663644 0 3.0118018 0 0 Z " fill="#585D64" transform="translate(157,214)"/>
<path d="M0 0 C0.66 0 1.32 0 2 0 C2.3623444 2.76998822 2.71517517 5.54062381 3.0625 8.3125 C3.16626953 9.09818359 3.27003906 9.88386719 3.37695312 10.69335938 C3.47041016 11.45068359 3.56386719 12.20800781 3.66015625 12.98828125 C3.74918213 13.68477783 3.83820801 14.38127441 3.92993164 15.09887695 C4 17 4 17 3 20 C2.34 20 1.68 20 1 20 C0.896875 20.845625 0.79375 21.69125 0.6875 22.5625 C-0.0828854 26.41442701 -1.36274514 29.44075031 -3 33 C-3.66 33 -4.32 33 -5 33 C-5.33 36.63 -5.66 40.26 -6 44 C-6.66 44 -7.32 44 -8 44 C-8 48.62 -8 53.24 -8 58 C-7.34 58 -6.68 58 -6 58 C-5.67 60.31 -5.34 62.62 -5 65 C-4.34 65 -3.68 65 -3 65 C-2.5875 65.721875 -2.175 66.44375 -1.75 67.1875 C2.0673251 73.32248677 7.64312332 76.0407643 14 79 C14 79.66 14 80.32 14 81 C15.5778125 81.185625 15.5778125 81.185625 17.1875 81.375 C20.49886041 81.91784597 22.94468384 82.71355109 26 84 C27.65919896 84.36871088 29.3247643 84.71281674 31 85 C31 85.66 31 86.32 31 87 C31.85464844 87.06058594 32.70929688 87.12117188 33.58984375 87.18359375 C35.24693359 87.30927734 35.24693359 87.30927734 36.9375 87.4375 C38.59072266 87.55931641 38.59072266 87.55931641 40.27734375 87.68359375 C43 88 43 88 44 89 C46.85528607 89.400383 49.69736487 89.7518227 52.5625 90.0625 C53.36880859 90.15337891 54.17511719 90.24425781 55.00585938 90.33789062 C57.00347377 90.56247449 59.0016856 90.78173236 61 91 C61 91.99 61 92.98 61 94 C57.37501758 94.02946035 53.75006668 94.04695131 50.125 94.0625 C49.11179687 94.07087891 48.09859375 94.07925781 47.0546875 94.08789062 C40.63736985 94.10845895 34.37009043 93.78323679 28 93 C28 92.34 28 91.68 28 91 C26.4840625 91.05607422 26.4840625 91.05607422 24.9375 91.11328125 C16.35595483 90.86639156 7.71923756 87.67582741 0 84 C0 83.34 0 82.68 0 82 C-0.721875 81.896875 -1.44375 81.79375 -2.1875 81.6875 C-5.27793421 80.93206053 -7.41743841 79.84468685 -10 78 C-10 77.34 -10 76.68 -10 76 C-10.86625 75.62875 -10.86625 75.62875 -11.75 75.25 C-14.32939979 73.81700012 -16.06121592 72.21575324 -18 70 C-18 69.34 -18 68.68 -18 68 C-18.66 68 -19.32 68 -20 68 C-20.99 66.02 -21.98 64.04 -23 62 C-22.01 61.34 -21.02 60.68 -20 60 C-18.82734 57.37159349 -18.82734 57.37159349 -17.9375 54.3125 C-17.59976563 53.23613281 -17.26203125 52.15976562 -16.9140625 51.05078125 C-16.46160156 49.54064453 -16.46160156 49.54064453 -16 48 C-15.78085938 47.27167969 -15.56171875 46.54335938 -15.3359375 45.79296875 C-14.48560191 42.88025208 -13.70810817 39.95045071 -13 37 C-12.34 37 -11.68 37 -11 37 C-10.67 34.36 -10.34 31.72 -10 29 C-9.34 29 -8.68 29 -8 29 C-7.95101562 28.35933594 -7.90203125 27.71867187 -7.8515625 27.05859375 C-7.39701245 21.79991987 -6.64978883 17.04102142 -5 12 C-4.64035156 10.84951172 -4.64035156 10.84951172 -4.2734375 9.67578125 C-3.11616968 6.04616853 -2.13316331 3.19974497 0 0 Z " fill="#53585F" transform="translate(215,222)"/>
<path d="M0 0 C2.09704636 0.01086425 4.19326008 -0.00005239 6.2902832 -0.01269531 C13.02202609 -0.01865076 19.19731205 0.16713455 25.63598633 2.26074219 C25.63598633 2.92074219 25.63598633 3.58074219 25.63598633 4.26074219 C28.11098633 4.75574219 28.11098633 4.75574219 30.63598633 5.26074219 C30.63598633 5.92074219 30.63598633 6.58074219 30.63598633 7.26074219 C31.62598633 7.59074219 32.61598633 7.92074219 33.63598633 8.26074219 C39.64135545 13.18822454 42.38374075 19.73185852 43.63598633 27.26074219 C43.71504258 29.31807492 43.74378458 31.37769731 43.73364258 33.43652344 C43.72880859 35.17192383 43.72880859 35.17192383 43.72387695 36.94238281 C43.71130859 38.7396582 43.71130859 38.7396582 43.69848633 40.57324219 C43.69397461 41.79076172 43.68946289 43.00828125 43.68481445 44.26269531 C43.6730521 47.26209444 43.65661459 50.26139307 43.63598633 53.26074219 C42.97598633 53.26074219 42.31598633 53.26074219 41.63598633 53.26074219 C41.12905941 51.67961299 40.6307219 50.09572836 40.13598633 48.51074219 C39.85754883 47.62902344 39.57911133 46.74730469 39.29223633 45.83886719 C38.63598633 43.26074219 38.63598633 43.26074219 38.63598633 39.26074219 C37.97598633 39.26074219 37.31598633 39.26074219 36.63598633 39.26074219 C36.14098633 36.29074219 36.14098633 36.29074219 35.63598633 33.26074219 C34.97598633 33.26074219 34.31598633 33.26074219 33.63598633 33.26074219 C33.18223633 32.29136719 32.72848633 31.32199219 32.26098633 30.32324219 C27.68215818 22.3346484 19.96343685 16.80761926 11.63598633 13.26074219 C11.63598633 12.60074219 11.63598633 11.94074219 11.63598633 11.26074219 C8.99598633 10.93074219 6.35598633 10.60074219 3.63598633 10.26074219 C3.63598633 9.60074219 3.63598633 8.94074219 3.63598633 8.26074219 C-0.32401367 7.93074219 -4.28401367 7.60074219 -8.36401367 7.26074219 C-8.36401367 6.60074219 -8.36401367 5.94074219 -8.36401367 5.26074219 C-15.62401367 5.26074219 -22.88401367 5.26074219 -30.36401367 5.26074219 C-30.03401367 4.27074219 -29.70401367 3.28074219 -29.36401367 2.26074219 C-19.51760539 0.69925994 -9.96258753 -0.06135906 0 0 Z " fill="#52575D" transform="translate(356.364013671875,163.7392578125)"/>
<path d="M0 0 C8.58 0 17.16 0 26 0 C26.495 4.95 26.495 4.95 27 10 C27.66 10 28.32 10 29 10 C29.495 15.445 29.495 15.445 30 21 C30.66 21 31.32 21 32 21 C32.495 25.95 32.495 25.95 33 31 C33.66 31 34.32 31 35 31 C35.495 36.445 35.495 36.445 36 42 C36.66 42 37.32 42 38 42 C38.495 46.95 38.495 46.95 39 52 C39.66 52 40.32 52 41 52 C41.495 57.445 41.495 57.445 42 63 C42.66 63 43.32 63 44 63 C44.495 64.485 44.495 64.485 45 66 C46.175625 65.01 46.175625 65.01 47.375 64 C50 62 50 62 52 62 C52 61.34 52 60.68 52 60 C52.66 60 53.32 60 54 60 C53.40312566 63.34249629 52.26396123 65.46436342 50 68 C49.34 68 48.68 68 48 68 C47.690625 68.61875 47.38125 69.2375 47.0625 69.875 C46.375 71.25 45.6875 72.625 45 74 C43.35 73.67 41.7 73.34 40 73 C40 72.67 40 72.34 40 72 C35.05 71.67 30.1 71.34 25 71 C25 70.67 25 70.34 25 70 C30.28 70 35.56 70 41 70 C40.34 67.958125 39.68 65.91625 39 63.8125 C37.67745211 59.72086747 36.74017844 56.31141401 37 52 C36.34 52 35.68 52 35 52 C34.32595716 49.43923903 33.660586 46.87673417 33 44.3125 C32.80921875 43.59126953 32.6184375 42.87003906 32.421875 42.12695312 C31.45134572 38.33149039 30.75044761 34.95384561 31 31 C30.34 31 29.68 31 29 31 C28.32595716 28.43923903 27.660586 25.87673417 27 23.3125 C26.80921875 22.59126953 26.6184375 21.87003906 26.421875 21.12695312 C25.45134572 17.33149039 24.75044761 13.95384561 25 10 C24.34 10 23.68 10 23 10 C22.505 6.535 22.505 6.535 22 3 C15.73 3.33 9.46 3.66 3 4 C2.62488281 5.6190625 2.24976563 7.238125 1.86328125 8.90625 C-1.26059109 22.24222933 -4.69968229 35.27459567 -9.1015625 48.24609375 C-9.94230703 50.8231585 -10.52939816 53.33325626 -11 56 C-11.33 56 -11.66 56 -12 56 C-14.04020401 46.77472971 -11.55357986 38.83341359 -9 30 C-8.34 30 -7.68 30 -7 30 C-6.67 26.37 -6.34 22.74 -6 19 C-5.34 19 -4.68 19 -4 19 C-3.67 15.37 -3.34 11.74 -3 8 C-2.34 8 -1.68 8 -1 8 C-0.67 5.36 -0.34 2.72 0 0 Z " fill="#F2F2F3" transform="translate(303,211)"/>
<path d="M0 0 C-0.66 1.32 -1.32 2.64 -2 4 C-2.99 4 -3.98 4 -5 4 C-5 4.66 -5 5.32 -5 6 C-7.31 6.33 -9.62 6.66 -12 7 C-12 7.66 -12 8.32 -12 9 C-13.98 9.33 -15.96 9.66 -18 10 C-18 10.66 -18 11.32 -18 12 C-19.98 12.33 -21.96 12.66 -24 13 C-24 13.66 -24 14.32 -24 15 C-25.65 15.33 -27.3 15.66 -29 16 C-29 16.66 -29 17.32 -29 18 C-30.65 18.33 -32.3 18.66 -34 19 C-34 19.66 -34 20.32 -34 21 C-35.65 21.33 -37.3 21.66 -39 22 C-39 22.66 -39 23.32 -39 24 C-40.72421427 25.21485385 -42.50634884 26.34818704 -44.3125 27.4375 C-47.59771439 29.42580622 -50.3051273 31.28854346 -53 34 C-53.66 34 -54.32 34 -55 34 C-55 34.66 -55 35.32 -55 36 C-57.475 36.495 -57.475 36.495 -60 37 C-60.33 35.35 -60.66 33.7 -61 32 C-62.65 32 -64.3 32 -66 32 C-66.33 31.34 -66.66 30.68 -67 30 C-62.25 27 -62.25 27 -60 27 C-60 26.34 -60 25.68 -60 25 C-58.35 24.67 -56.7 24.34 -55 24 C-55 23.34 -55 22.68 -55 22 C-53.81921875 21.44570312 -52.6384375 20.89140625 -51.421875 20.3203125 C-49.86457126 19.58856737 -48.30728026 18.85679511 -46.75 18.125 C-45.97269531 17.76019531 -45.19539063 17.39539063 -44.39453125 17.01953125 C-43.26337891 16.48779297 -43.26337891 16.48779297 -42.109375 15.9453125 C-41.41811523 15.62062988 -40.72685547 15.29594727 -40.01464844 14.96142578 C-38.63547059 14.30325778 -37.27418731 13.60660884 -35.93066406 12.87841797 C-34 12 -34 12 -31 12 C-31 11.34 -31 10.68 -31 10 C-27.535 9.505 -27.535 9.505 -24 9 C-24 8.34 -24 7.68 -24 7 C-21.36 6.67 -18.72 6.34 -16 6 C-16 5.34 -16 4.68 -16 4 C-11.545 3.505 -11.545 3.505 -7 3 C-7 2.34 -7 1.68 -7 1 C-4.50935112 0.31292445 -2.62113708 0 0 0 Z " fill="#52565D" transform="translate(296,180)"/>
<path d="M0 0 C13 0 13 0 16 1 C16 1.66 16 2.32 16 3 C17.32 3.66 18.64 4.32 20 5 C20 5.66 20 6.32 20 7 C20.66 7 21.32 7 22 7 C22 7.99 22 8.98 22 10 C22.66 10 23.32 10 24 10 C24 16.27 24 22.54 24 29 C23.34 29 22.68 29 22 29 C22 30.32 22 31.64 22 33 C21.34 33 20.68 33 20 33 C19.9071875 33.8971875 19.9071875 33.8971875 19.8125 34.8125 C18.64934748 37.94406448 16.96996683 38.61862008 14 40 C12.68 40 11.36 40 10 40 C10 40.66 10 41.32 10 42 C6.7 42 3.4 42 0 42 C0 28.14 0 14.28 0 0 Z M3 4 C3 15.22 3 26.44 3 38 C8.79199672 38.13043257 8.79199672 38.13043257 14 37 C14 36.34 14 35.68 14 35 C14.99 34.67 15.98 34.34 17 34 C17.33 32.35 17.66 30.7 18 29 C18.66 29 19.32 29 20 29 C20 23.06 20 17.12 20 11 C19.34 11 18.68 11 18 11 C17.87625 10.1028125 17.87625 10.1028125 17.75 9.1875 C17.03806306 6.44296171 17.03806306 6.44296171 13 4 C9.7 4 6.4 4 3 4 Z " fill="#E4E5E6" transform="translate(117,227)"/>
<path d="M0 0 C3.81035094 5.71552641 5.55570361 13.1463221 5 20 C5.66 20 6.32 20 7 20 C7.33 24.95 7.66 29.9 8 35 C16.415 34.505 16.415 34.505 25 34 C25.99 30.535 25.99 30.535 27 27 C27.99 26.67 28.98 26.34 30 26 C29.67 30.29 29.34 34.58 29 39 C21.41 39 13.82 39 6 39 C5.67 35.37 5.34 31.74 5 28 C4.34 28 3.68 28 3 28 C2.67 23.38 2.34 18.76 2 14 C1.34 14 0.68 14 0 14 C-0.19456705 12.04235617 -0.38044247 10.08384679 -0.5625 8.125 C-0.66691406 7.03445312 -0.77132812 5.94390625 -0.87890625 4.8203125 C-1 2 -1 2 0 0 Z " fill="#F8F8F9" transform="translate(222,246)"/>
<path d="M0 0 C0.33 0.66 0.66 1.32 1 2 C1.66 2 2.32 2 3 2 C3 3.65 3 5.3 3 7 C3.66 7 4.32 7 5 7 C5.66 11.29 6.32 15.58 7 20 C7.66 15.05 8.32 10.1 9 5 C9.99 4.67 10.98 4.34 12 4 C11.5251643 13.14683505 10.70173425 21.98937838 9 31 C8.62470325 33.0832799 8.24969112 35.16661109 7.875 37.25 C7.58424419 38.83350085 7.29293565 40.41690095 7 42 C6.67 42 6.34 42 6 42 C4.34946802 35.27997693 3.37431901 28.58984419 2.5078125 21.7265625 C2.06192784 18.45445507 1.50867785 15.23978955 0.875 12 C0.0911677 7.90325147 -0.18503959 4.16339068 0 0 Z " fill="#F5F5F5" transform="translate(234,216)"/>
<path d="M0 0 C0.33 0 0.66 0 1 0 C2.33182719 6.65913595 1.41228563 10.74171181 -1 17 C-2.73168377 22.60250632 -3.9115929 28.24533692 -5 34 C-5.66 34 -6.32 34 -7 34 C-7.33 36.64 -7.66 39.28 -8 42 C-8.66 42 -9.32 42 -10 42 C-10.02578125 42.61746094 -10.0515625 43.23492187 -10.078125 43.87109375 C-10.51307949 50.36575508 -12.11727598 55.21176363 -15 61 C-15.67834587 62.66194738 -16.35199575 64.32598903 -17 66 C-17.66 66 -18.32 66 -19 66 C-18.67 63.36 -18.34 60.72 -18 58 C-17.34 58 -16.68 58 -16 58 C-15.87625 56.783125 -15.7525 55.56625 -15.625 54.3125 C-15.20595091 50.90622955 -14.33469269 48.16989515 -13 45 C-12.62406934 43.0075675 -12.28020455 41.0081326 -12 39 C-11.34 39 -10.68 39 -10 39 C-9.96261719 38.39414063 -9.92523438 37.78828125 -9.88671875 37.1640625 C-9.3859239 30.78138306 -8.04935314 25.05783632 -6 19 C-5.34 19 -4.68 19 -4 19 C-3.95101562 18.40832031 -3.90203125 17.81664062 -3.8515625 17.20703125 C-3.43115506 12.76375952 -2.82651887 9.10966746 -1 5 C-0.63128912 3.34080104 -0.28718326 1.6752357 0 0 Z " fill="#D3D4D6" transform="translate(212,217)"/>
<path d="M0 0 C0.66 0 1.32 0 2 0 C4.7213477 5.44269541 4.74470211 14.02976105 4 20 C3.34 20.66 2.68 21.32 2 22 C1.67 21.67 1.34 21.34 1 21 C0.34 24.96 -0.32 28.92 -1 33 C-3.475 33.495 -3.475 33.495 -6 34 C-6 35.65 -6 37.3 -6 39 C-6.33 39 -6.66 39 -7 39 C-7 36.69 -7 34.38 -7 32 C-6.34 32 -5.68 32 -5 32 C-4.67 27.05 -4.34 22.1 -4 17 C-3.34 17 -2.68 17 -2 17 C-1.93941406 15.94039062 -1.87882813 14.88078125 -1.81640625 13.7890625 C-1.73199873 12.40102779 -1.64735083 11.01300768 -1.5625 9.625 C-1.52318359 8.92632812 -1.48386719 8.22765625 -1.44335938 7.5078125 C-1.11328125 2.2265625 -1.11328125 2.2265625 0 0 Z " fill="#E9EAEB" transform="translate(255,239)"/>
<path d="M0 0 C-0.4128084 6.61579776 -0.97890921 12.68409127 -3 19 C-3.36270588 20.99488234 -3.70640699 22.9937811 -4 25 C-4.66 25 -5.32 25 -6 25 C-6.33 29.29 -6.66 33.58 -7 38 C-9.475 38.495 -9.475 38.495 -12 39 C-12.33 40.32 -12.66 41.64 -13 43 C-13 41.02 -13 39.04 -13 37 C-12.34 37 -11.68 37 -11 37 C-10.95101563 36.29875 -10.90203125 35.5975 -10.8515625 34.875 C-10.38989715 29.01662584 -9.60132107 23.65172144 -8 18 C-7.690625 16.88625 -7.38125 15.7725 -7.0625 14.625 C-6.711875 13.42875 -6.36125 12.2325 -6 11 C-5.76152344 10.13375 -5.52304687 9.2675 -5.27734375 8.375 C-5.02082031 7.4675 -4.76429688 6.56 -4.5 5.625 C-4.2628125 4.77164063 -4.025625 3.91828125 -3.78125 3.0390625 C-2.97417667 0.93260112 -2.42556113 0 0 0 Z " fill="#EBECED" transform="translate(297,219)"/>
<path d="M0 0 C0.33 0 0.66 0 1 0 C1 21.78 1 43.56 1 66 C8.82656235 66.8351469 8.82656235 66.8351469 16.5703125 67.09765625 C17.94316406 67.09282227 17.94316406 67.09282227 19.34375 67.08789062 C20.72046875 67.07532227 20.72046875 67.07532227 22.125 67.0625 C23.08148438 67.05798828 24.03796875 67.05347656 25.0234375 67.04882812 C27.34902758 67.03720017 29.6744776 67.02086102 32 67 C32 67.99 32 68.98 32 70 C21.44 70 10.88 70 0 70 C0 46.9 0 23.8 0 0 Z " fill="#FEFEFE" transform="translate(100,215)"/>
<path d="M0 0 C12.88888889 0 12.88888889 0 18 3 C18.33 3.99 18.66 4.98 19 6 C19.66 6 20.32 6 21 6 C20.67 7.65 20.34 9.3 20 11 C16.23145777 9.74381926 15.92041544 8.33985294 14 5 C10.87268146 3.28800934 10.87268146 3.28800934 2 3 C2 14.22 2 25.44 2 37 C1.01 37.495 1.01 37.495 0 38 C0 25.46 0 12.92 0 0 Z " fill="#FAFAFA" transform="translate(118,228)"/>
<path d="M0 0 C0.66 0 1.32 0 2 0 C2.67561372 2.5395837 3.34065828 5.08118835 4 7.625 C4.19078125 8.33785156 4.3815625 9.05070313 4.578125 9.78515625 C5.65017287 13.95848544 6.21946814 17.65178751 6 22 C2.7 22 -0.6 22 -4 22 C-3.88487847 20.27014758 -3.75744323 18.54111249 -3.625 16.8125 C-3.55539062 15.84957031 -3.48578125 14.88664063 -3.4140625 13.89453125 C-2.99578755 10.97055262 -2.15387146 8.70438623 -1 6 C-0.62406934 4.0075675 -0.28020455 2.0081326 0 0 Z M1 16 C0.67 16.99 0.34 17.98 0 19 C0.99 19 1.98 19 3 19 C2.67 18.01 2.34 17.02 2 16 C1.67 16 1.34 16 1 16 Z " fill="#EDEEEF" transform="translate(314,230)"/>
<path d="M0 0 C2.32315698 2.32315698 2.72496675 3.87261175 3.625 7 C3.88539063 7.886875 4.14578125 8.77375 4.4140625 9.6875 C5 12 5 12 5 14 C10.61 14 16.22 14 22 14 C22 14.99 22 15.98 22 17 C15.62641289 17.96205088 9.44070471 18.10655578 3 18 C0.42551783 12.73910165 -0.9519344 7.90005231 -1 2 C-0.67 1.34 -0.34 0.68 0 0 Z " fill="#FBFCFC" transform="translate(171,267)"/>
<path d="M0 0 C0.70253906 0.00386719 1.40507812 0.00773438 2.12890625 0.01171875 C2.83144531 0.00785156 3.53398437 0.00398437 4.2578125 0 C9.50229247 0.01010497 9.50229247 0.01010497 10.62890625 1.13671875 C10.66954457 2.8028899 10.67162725 4.4705997 10.62890625 6.13671875 C10.29890625 4.81671875 9.96890625 3.49671875 9.62890625 2.13671875 C4.67890625 2.13671875 -0.27109375 2.13671875 -5.37109375 2.13671875 C-5.61963163 6.8475545 -5.61963163 6.8475545 -5.84912109 11.55932617 C-6.08505438 15.51200934 -6.84505406 18.51988453 -8.37109375 22.13671875 C-8.60235258 23.94211438 -8.76798884 25.75699466 -8.87109375 27.57421875 C-9.17907181 31.71792354 -9.7965479 35.252839 -11.37109375 39.13671875 C-11.70109375 39.13671875 -12.03109375 39.13671875 -12.37109375 39.13671875 C-12.04374133 36.13598827 -11.70813347 33.13637224 -11.37109375 30.13671875 C-11.25846191 29.10780518 -11.25846191 29.10780518 -11.14355469 28.05810547 C-10.89029754 25.75048591 -10.63103022 23.44359465 -10.37109375 21.13671875 C-10.28811035 20.37045166 -10.20512695 19.60418457 -10.11962891 18.81469727 C-9.48465822 13.25028322 -9.48465822 13.25028322 -8.37109375 12.13671875 C-8.00120825 10.3104091 -7.67435911 8.47526501 -7.37109375 6.63671875 C-6.27837265 0.01209706 -6.27837265 0.01209706 0 0 Z " fill="#898C91" transform="translate(254.37109375,213.86328125)"/>
<path d="M0 0 C0.99 0.495 0.99 0.495 2 1 C2.5625 3.40625 2.5625 3.40625 3 6.5 C3.99459653 13.05035058 5.22038115 19.40127051 7.125 25.75 C7.9172779 28.6927465 8.18306075 30.97949759 8 34 C6.62437146 32.71034824 5.29233607 31.37310707 4 30 C4 29.34 4 28.68 4 28 C3.34 28 2.68 28 2 28 C1.65988375 24.83402429 1.32916813 21.6671312 1 18.5 C0.90460938 17.613125 0.80921875 16.72625 0.7109375 15.8125 C0.16485054 10.50765526 -0.0996753 5.33262848 0 0 Z " fill="#EBECEC" transform="translate(217,218)"/>
<path d="M0 0 C0.66 0 1.32 0 2 0 C2.66 3.3 3.32 6.6 4 10 C9.28 10 14.56 10 20 10 C17 13 17 13 13.20703125 13.29296875 C11.74190067 13.2730801 10.27691633 13.23737968 8.8125 13.1875 C7.68811523 13.16719727 7.68811523 13.16719727 6.54101562 13.14648438 C4.69370233 13.11118539 2.84675934 13.05737917 1 13 C-0.50961173 8.1542616 -1.21544871 4.98333971 0 0 Z " fill="#FCFCFC" transform="translate(324,272)"/>
<path d="M0 0 C0.33 0 0.66 0 1 0 C2.33257403 13.6332574 2.33257403 13.6332574 1 20 C-0.65 20.33 -2.3 20.66 -4 21 C-4.33 22.32 -4.66 23.64 -5 25 C-5 23.02 -5 21.04 -5 19 C-4.34 19 -3.68 19 -3 19 C-2.95101563 18.29875 -2.90203125 17.5975 -2.8515625 16.875 C-2.39116058 11.03265841 -1.59596049 5.63906038 0 0 Z " fill="#E3E4E5" transform="translate(289,237)"/>
<path d="M0 0 C0.33 0 0.66 0 1 0 C1 1.65 1 3.3 1 5 C1.66 5 2.32 5 3 5 C3.22162329 6.62324086 3.42689803 8.248721 3.625 9.875 C3.74101562 10.77992188 3.85703125 11.68484375 3.9765625 12.6171875 C3.98429688 13.40351563 3.99203125 14.18984375 4 15 C3.34 15.66 2.68 16.32 2 17 C1.34 16.67 0.68 16.34 0 16 C-1.33070829 10.6077386 -1.03352411 5.39729256 0 0 Z " fill="#E5E6E7" transform="translate(168,252)"/>
<path d="M0 0 C0.66 0.33 1.32 0.66 2 1 C2.33 6.61 2.66 12.22 3 18 C2.01 17.67 1.02 17.34 0 17 C-0.19436491 14.54203147 -0.3807742 12.08390706 -0.5625 9.625 C-0.61857422 8.92632812 -0.67464844 8.22765625 -0.73242188 7.5078125 C-1.11328125 2.2265625 -1.11328125 2.2265625 0 0 Z " fill="#FCFCFC" transform="translate(258,259)"/>
<path d="M0 0 C0.33 0 0.66 0 1 0 C2.77751425 8.88757125 0.2386113 15.12829329 -4 23 C-5.96600093 16.85101837 -3.38955751 10.73493803 -1 5 C-0.63128912 3.34080104 -0.28718326 1.6752357 0 0 Z " fill="#D8D9DA" transform="translate(212,217)"/>
<path d="M0 0 C-0.33 4.95 -0.66 9.9 -1 15 C-1.99 15.33 -2.98 15.66 -4 16 C-3.88658509 13.51979503 -3.75985314 11.04155031 -3.625 8.5625 C-3.5940625 7.85544922 -3.563125 7.14839844 -3.53125 6.41992188 C-3.42719371 4.60760812 -3.22080108 2.80182012 -3 1 C-1 0 -1 0 0 0 Z " fill="#FDFEFE" transform="translate(246,220)"/>
<path d="M0 0 C0.66 0 1.32 0 2 0 C1.40312566 3.34249629 0.26396123 5.46436342 -2 8 C-2.66 8 -3.32 8 -4 8 C-4.66 9.32 -5.32 10.64 -6 12 C-6.66 10.68 -7.32 9.36 -8 8 C-4.55384615 3.2 -4.55384615 3.2 -1.75 2.1875 C-1.1725 2.125625 -0.595 2.06375 0 2 C0 1.34 0 0.68 0 0 Z " fill="#B4D558" transform="translate(355,271)"/>
<path d="M0 0 C0.99 0.495 0.99 0.495 2 1 C2.59765625 3.4765625 2.59765625 3.4765625 3.0625 6.625 C3.22621094 7.70523438 3.38992187 8.78546875 3.55859375 9.8984375 C3.70425781 10.92195312 3.84992188 11.94546875 4 13 C4.17208984 14.16402344 4.17208984 14.16402344 4.34765625 15.3515625 C4.57383777 16.89979091 4.78859341 18.44968502 5 20 C3.046875 19.2890625 3.046875 19.2890625 1 18 C0.390625 15.8984375 0.390625 15.8984375 0.25 13.375 C0.19457031 12.488125 0.13914063 11.60125 0.08203125 10.6875 C-0.02691583 7.11818612 -0.06612487 3.57074277 0 0 Z " fill="#C8CACC" transform="translate(217,218)"/>
<path d="M0 0 C2.51239382 3.76859072 3.12663199 6.26239249 3.0625 10.6875 C3.05347656 11.49574219 3.04445312 12.30398438 3.03515625 13.13671875 C3.02355469 13.75160156 3.01195312 14.36648438 3 15 C2.01 14.67 1.02 14.34 0 14 C-0.19456705 12.04235617 -0.38044247 10.08384679 -0.5625 8.125 C-0.66691406 7.03445312 -0.77132812 5.94390625 -0.87890625 4.8203125 C-1 2 -1 2 0 0 Z " fill="#FCFCFC" transform="translate(222,246)"/>
<path d="M0 0 C1.32 0.66 2.64 1.32 4 2 C4 3.32 4 4.64 4 6 C1.525 5.505 1.525 5.505 -1 5 C-1 4.67 -1 4.34 -1 4 C-5.95 3.67 -10.9 3.34 -16 3 C-16 2.67 -16 2.34 -16 2 C-10.72 2 -5.44 2 0 2 C0 1.34 0 0.68 0 0 Z " fill="#E8ECDD" transform="translate(344,279)"/>
<path d="M0 0 C0.66 0.99 1.32 1.98 2 3 C2.66 2.01 3.32 1.02 4 0 C3 5 2 10 1 15 C0.34 15 -0.32 15 -1 15 C-0.979375 14.2575 -0.95875 13.515 -0.9375 12.75 C-0.86696348 10.09709799 -0.86696348 10.09709799 -1.625 8.0625 C-2.17641481 5.02971853 -1.08999077 2.82115258 0 0 Z " fill="#ADAFB3" transform="translate(206,236)"/>
<path d="M0 0 C0.33 0 0.66 0 1 0 C0.67 3.96 0.34 7.92 0 12 C-0.99 12 -1.98 12 -3 12 C-3.29344873 7.01137151 -3.05887078 4.03770942 0 0 Z " fill="#FCFCFC" transform="translate(293,232)"/>
<path d="M0 0 C0.66 1.98 1.32 3.96 2 6 C1.34 6 0.68 6 0 6 C-0.66 6.66 -1.32 7.32 -2 8 C-2 6.02 -2 4.04 -2 2 C-7.28 2 -12.56 2 -18 2 C-18 1.67 -18 1.34 -18 1 C-15.75013201 0.83156069 -13.50009983 0.66531346 -11.25 0.5 C-9.37054688 0.36078125 -9.37054688 0.36078125 -7.453125 0.21875 C-4.97265229 0.06161598 -2.48544483 0 0 0 Z " fill="#D6D7D9" transform="translate(235,212)"/>
<path d="M0 0 C5.28 0 10.56 0 16 0 C16 0.99 16 1.98 16 3 C13.36 3 10.72 3 8 3 C8 2.67 8 2.34 8 2 C5.36 1.67 2.72 1.34 0 1 C0 0.67 0 0.34 0 0 Z " fill="#EDF0E7" transform="translate(177,281)"/>
<path d="M0 0 C2.05382532 4.10765063 -0.02038052 9.67616228 -1 14 C-1.83704517 16.21044939 -2.76391851 17.97732121 -4 20 C-5.702868 16.59426399 -4.00098627 12.99075558 -3.125 9.4375 C-2.84462891 8.24737305 -2.84462891 8.24737305 -2.55859375 7.03320312 C-1.13920135 1.13920135 -1.13920135 1.13920135 0 0 Z " fill="#A1A4A8" transform="translate(192,235)"/>
<path d="M0 0 C2 2 2 2 2.125 5.625 C2.08375 6.73875 2.0425 7.8525 2 9 C1.67 8.34 1.34 7.68 1 7 C0.34 7 -0.32 7 -1 7 C-1.33 7.66 -1.66 8.32 -2 9 C-2 6.36 -2 3.72 -2 1 C-1.34 0.67 -0.68 0.34 0 0 Z " fill="#656A70" transform="translate(256,232)"/>
<path d="M0 0 C0.66 0 1.32 0 2 0 C4.42857143 6.28571429 4.42857143 6.28571429 3 10 C3 9.01 3 8.02 3 7 C1.68 7.99 0.36 8.98 -1 10 C-0.67 6.7 -0.34 3.4 0 0 Z " fill="#D4D5D7" transform="translate(314,230)"/>
<path d="M0 0 C0.66 0 1.32 0 2 0 C3.20272819 2.40545638 3.10071472 3.94996953 3.0625 6.625 C3.05347656 7.44226563 3.04445313 8.25953125 3.03515625 9.1015625 C3.02355469 9.72804687 3.01195312 10.35453125 3 11 C2.67 11 2.34 11 2 11 C2 8.69 2 6.38 2 4 C1.34 4 0.68 4 0 4 C0 5.65 0 7.3 0 9 C-0.33 9 -0.66 9 -1 9 C-1.125 2.25 -1.125 2.25 0 0 Z " fill="#B0B2B5" transform="translate(255,239)"/>
<path d="M0 0 C2 1.5 2 1.5 4 4 C4.35800135 6.75871627 4.18660165 9.20097524 4 12 C3.01 11.67 2.02 11.34 1 11 C0.67 7.37 0.34 3.74 0 0 Z " fill="#96999D" transform="translate(238,249)"/>
<path d="M0 0 C0.33 0 0.66 0 1 0 C0.67 3.63 0.34 7.26 0 11 C-0.99 10.34 -1.98 9.68 -3 9 C-2.67 6.69 -2.34 4.38 -2 2 C-1.34 2 -0.68 2 0 2 C0 1.34 0 0.68 0 0 Z " fill="#D0D1D3" transform="translate(205,244)"/>
<path d="M0 0 C0.33 0 0.66 0 1 0 C1.33 2.31 1.66 4.62 2 7 C2.66 6.34 3.32 5.68 4 5 C3.625 7.9375 3.625 7.9375 3 11 C2.01 11.495 2.01 11.495 1 12 C0.03929566 9.11788698 -0.10581883 7.30149956 -0.0625 4.3125 C-0.05347656 3.50425781 -0.04445313 2.69601563 -0.03515625 1.86328125 C-0.02355469 1.24839844 -0.01195312 0.63351563 0 0 Z " fill="#999CA0" transform="translate(270,247)"/>
<path d="M0 0 C1.0326802 2.78823655 1.04509293 3.8677274 0.0625 6.75 C-0.288125 7.4925 -0.63875 8.235 -1 9 C-2.32 8.67 -3.64 8.34 -5 8 C-4.01 7.34 -3.02 6.68 -2 6 C-0.78715124 2.94570927 -0.78715124 2.94570927 0 0 Z " fill="#83868B" transform="translate(197,276)"/>
<path d="M0 0 C2 1 2 1 2 1 Z " fill="#FFFFFF" transform="translate(282,285)"/>
<path d="" fill="#6B7664" transform="translate(0,0)"/>
<path d="" fill="#B1D263" transform="translate(0,0)"/>
<path d="" fill="#AED069" transform="translate(0,0)"/>
<path d="" fill="#B7D55D" transform="translate(0,0)"/>
<path d="" fill="#FFFFFF" transform="translate(0,0)"/>
<path d="" fill="#FFFFFF" transform="translate(0,0)"/>
<path d="" fill="#FFFFFF" transform="translate(0,0)"/>
<path d="" fill="#8AA05E" transform="translate(0,0)"/>
<path d="" fill="#4C525B" transform="translate(0,0)"/>
</svg>
